# Wavefront OBJ file generated by LithUnwrap
# num_vertices: 64
# num_vertex_normals: 64
# num_uvs: 198
# num_faces: 66
# num_groups: 2

mtllib torch_1.mtl

v 0.000000 15.546874 -11.687501
v 0.906250 15.749999 -11.359376
v 0.000000 9.781250 -8.062500
v 0.906250 9.984375 -7.750000
v 1.281250 16.234375 -10.593751
v 1.281250 10.468750 -6.984375
v 0.906250 16.718750 -9.828126
v 0.906250 10.953125 -6.218750
v 0.000000 16.921875 -9.500001
v 0.000000 11.156250 -5.890625
v 0.000000 16.921875 -9.500001
v -0.796875 16.718750 -9.828126
v 0.000000 11.156250 -5.890625
v -0.796875 10.953125 -6.218750
v -1.171875 16.234375 -10.593751
v -1.171875 10.468750 -6.984375
v -0.796875 15.749999 -11.359376
v -0.796875 9.984375 -7.750000
v 0.000000 4.218750 -4.140625
v 0.656250 4.359375 -3.921875
v 0.937500 4.703125 -3.375000
v 0.656250 5.046875 -2.812500
v 0.000000 5.203125 -2.578125
v 0.000000 5.203125 -2.578125
v -0.546875 5.046875 -2.812500
v -0.828125 4.703125 -3.375000
v -0.546875 4.359375 -3.921875
v 0.000000 -1.250000 -0.218750
v 0.390625 -1.171875 -0.078125
v 0.546875 -0.968750 0.156250
v 0.546875 -0.968750 0.156250
v 0.390625 -0.765625 0.468750
v 0.000000 -0.671875 0.593750
v 0.000000 -0.671875 0.593750
v -0.281250 -0.765625 0.468750
v -0.437500 -0.968750 0.156250
v -0.437500 -0.968750 0.156250
v -0.281250 -1.171875 -0.078125
v 0.000000 -1.250000 -0.218750
v 0.000000 16.234375 -10.593751
v 0.906250 15.749999 -11.359376
v 0.000000 15.546874 -11.687501
v 1.281250 16.234375 -10.593751
v 0.906250 16.718750 -9.828126
v 0.000000 16.921875 -9.500001
v -0.796875 16.718750 -9.828126
v -1.171875 16.234375 -10.593751
v -0.796875 15.749999 -11.359376
v 0.000000 -0.968750 0.156250
v 0.000000 -1.250000 -0.218750
v 0.390625 -1.171875 -0.078125
v 0.546875 -0.968750 0.156250
v 0.546875 -0.968750 0.156250
v 0.390625 -0.765625 0.468750
v 0.000000 -0.671875 0.593750
v -0.281250 -0.765625 0.468750
v -0.437500 -0.968750 0.156250
v -0.437500 -0.968750 0.156250
v -0.281250 -1.171875 -0.078125
v 0.000000 -1.250000 -0.218750
v 0.000000 32.000000 -20.000002
v 0.000000 11.999999 -20.000000
v 0.000000 12.000000 -0.000001
v 0.000000 32.000000 -0.000001
# num_vertices: 64

vn -0.169105 -0.524064 -0.834722
vn 0.605823 -0.422701 -0.674020
vn -0.022600 -0.554046 -0.832179
vn 0.704672 -0.398927 -0.586766
vn 0.990615 -0.072524 -0.115850
vn 0.999669 -0.023180 0.011135
vn 0.799115 0.318996 0.509565
vn 0.709161 0.352176 0.610788
vn 0.391784 0.488199 0.779851
vn 0.392288 0.460939 0.796019
vn -0.435853 0.477566 0.762865
vn -0.635357 0.409753 0.654541
vn -0.435832 0.464389 0.770969
vn -0.730024 0.340791 0.592391
vn -0.990615 0.072524 0.115850
vn -0.999675 -0.020636 0.014943
vn -0.808067 -0.312583 -0.499320
vn -0.722075 -0.389136 -0.571997
vn -0.043145 -0.579181 -0.814056
vn 0.697781 -0.427305 -0.574901
vn 0.998384 -0.054247 0.016904
vn 0.707023 0.327008 0.627044
vn 0.384794 0.442422 0.810059
vn -0.449517 0.430133 0.782892
vn -0.735365 0.311342 0.601917
vn -0.998484 -0.047516 0.027769
vn -0.710788 -0.419863 -0.564355
vn 0.373297 -0.541135 -0.753540
vn 0.776063 -0.383011 -0.501027
vn 0.892916 -0.280667 -0.352032
vn 0.919575 0.160312 0.358722
vn 0.600477 0.371195 0.708267
vn 0.367861 0.441764 0.818243
vn -0.468907 0.418457 0.777830
vn -0.813104 0.257381 0.522126
vn -0.920500 0.158863 0.356990
vn -0.904630 -0.270596 -0.329275
vn -0.632776 -0.460298 -0.622672
vn -0.494021 -0.506693 -0.706545
vn -0.000000 0.845858 -0.533408
vn 0.001460 0.845857 -0.533407
vn -0.000200 0.846636 -0.532172
vn 0.000000 0.845079 -0.534642
vn -0.001460 0.845858 -0.533407
vn 0.000200 0.846637 -0.532172
vn 0.001660 0.845857 -0.533406
vn 0.000000 0.845079 -0.534642
vn -0.001660 0.845857 -0.533407
vn 0.003630 -0.806532 0.591179
vn -0.055912 -0.798749 0.599061
vn -0.027985 -0.778007 0.627632
vn 0.000000 -0.755689 0.654931
vn 0.000000 -0.838444 0.544988
vn -0.009456 -0.832964 0.553247
vn 0.003676 -0.827470 0.561498
vn 0.013132 -0.832930 0.553223
vn 0.000000 -0.838444 0.544988
vn 0.000000 -0.755689 0.654931
vn 0.038825 -0.777709 0.627424
vn 0.077544 -0.797591 0.598193
vn -1.000000 0.000000 0.000000
vn -1.000000 0.000000 0.000000
vn -1.000000 0.000000 0.000000
vn -1.000000 0.000000 0.000000
# num_vertex_normals: 64

vt 0.500000 0.000000
vt 0.625000 0.000000
vt 0.500000 0.333333
vt 0.625000 0.000000
vt 0.625000 0.333333
vt 0.500000 0.333333
vt 0.625000 0.000000
vt 0.750000 0.000000
vt 0.625000 0.333333
vt 0.750000 0.000000
vt 0.750000 0.333333
vt 0.625000 0.333333
vt 0.750000 0.000000
vt 0.875000 0.000000
vt 0.750000 0.333333
vt 0.875000 0.000000
vt 0.875000 0.333333
vt 0.750000 0.333333
vt 0.875000 0.000000
vt 1.000000 0.000000
vt 0.875000 0.333333
vt 1.000000 0.000000
vt 1.000000 0.333333
vt 0.875000 0.333333
vt 0.000000 0.000000
vt 0.125000 0.000000
vt 0.000000 0.333333
vt 0.125000 0.000000
vt 0.125000 0.333333
vt 0.000000 0.333333
vt 0.125000 0.000000
vt 0.250000 0.000000
vt 0.125000 0.333333
vt 0.250000 0.000000
vt 0.250000 0.333333
vt 0.125000 0.333333
vt 0.250000 0.000000
vt 0.375000 0.000000
vt 0.250000 0.333333
vt 0.375000 0.000000
vt 0.375000 0.333333
vt 0.250000 0.333333
vt 0.375000 0.000000
vt 0.500000 0.000000
vt 0.375000 0.333333
vt 0.500000 0.000000
vt 0.500000 0.333333
vt 0.375000 0.333333
vt 0.500000 0.333333
vt 0.625000 0.333333
vt 0.500000 0.666667
vt 0.625000 0.333333
vt 0.625000 0.666667
vt 0.500000 0.666667
vt 0.625000 0.333333
vt 0.750000 0.333333
vt 0.625000 0.666667
vt 0.750000 0.333333
vt 0.750000 0.666667
vt 0.625000 0.666667
vt 0.750000 0.333333
vt 0.875000 0.333333
vt 0.750000 0.666667
vt 0.875000 0.333333
vt 0.875000 0.666667
vt 0.750000 0.666667
vt 0.875000 0.333333
vt 1.000000 0.333333
vt 0.875000 0.666667
vt 1.000000 0.333333
vt 1.000000 0.666667
vt 0.875000 0.666667
vt 0.000000 0.333333
vt 0.125000 0.333333
vt 0.000000 0.666667
vt 0.125000 0.333333
vt 0.125000 0.666667
vt 0.000000 0.666667
vt 0.125000 0.333333
vt 0.250000 0.333333
vt 0.125000 0.666667
vt 0.250000 0.333333
vt 0.250000 0.666667
vt 0.125000 0.666667
vt 0.250000 0.333333
vt 0.375000 0.333333
vt 0.250000 0.666667
vt 0.375000 0.333333
vt 0.375000 0.666667
vt 0.250000 0.666667
vt 0.375000 0.333333
vt 0.500000 0.333333
vt 0.375000 0.666667
vt 0.500000 0.333333
vt 0.500000 0.666667
vt 0.375000 0.666667
vt 0.500000 0.666667
vt 0.625000 0.666667
vt 0.500000 1.000000
vt 0.625000 0.666667
vt 0.625000 1.000000
vt 0.500000 1.000000
vt 0.625000 0.666667
vt 0.750000 0.666667
vt 0.625000 1.000000
vt 0.750000 0.666667
vt 0.750000 1.000000
vt 0.625000 1.000000
vt 0.750000 0.666667
vt 0.875000 0.666667
vt 0.750000 1.000000
vt 0.875000 0.666667
vt 0.875000 1.000000
vt 0.750000 1.000000
vt 0.875000 0.666667
vt 1.000000 0.666667
vt 0.875000 1.000000
vt 1.000000 0.666667
vt 1.000000 1.000000
vt 0.875000 1.000000
vt 0.000000 0.666667
vt 0.125000 0.666667
vt 0.000000 1.000000
vt 0.125000 0.666667
vt 0.125000 1.000000
vt 0.000000 1.000000
vt 0.125000 0.666667
vt 0.250000 0.666667
vt 0.125000 1.000000
vt 0.250000 0.666667
vt 0.250000 1.000000
vt 0.125000 1.000000
vt 0.250000 0.666667
vt 0.375000 0.666667
vt 0.250000 1.000000
vt 0.375000 0.666667
vt 0.375000 1.000000
vt 0.250000 1.000000
vt 0.375000 0.666667
vt 0.500000 0.666667
vt 0.375000 1.000000
vt 0.500000 0.666667
vt 0.500000 1.000000
vt 0.375000 1.000000
vt 0.500000 0.846154
vt 0.608786 0.737368
vt 0.500000 0.692308
vt 0.500000 0.846154
vt 0.653846 0.846154
vt 0.608786 0.737368
vt 0.500000 0.846154
vt 0.608786 0.954939
vt 0.653846 0.846154
vt 0.500000 0.846154
vt 0.500000 1.000000
vt 0.608786 0.954939
vt 0.500000 0.846154
vt 0.391214 0.954940
vt 0.500000 1.000000
vt 0.500000 0.846154
vt 0.346154 0.846154
vt 0.391214 0.954940
vt 0.500000 0.846154
vt 0.391214 0.737368
vt 0.346154 0.846154
vt 0.500000 0.846154
vt 0.500000 0.692308
vt 0.391214 0.737368
vt 0.500000 0.153846
vt 0.500000 0.000000
vt 0.608786 0.045061
vt 0.500000 0.153846
vt 0.608786 0.045061
vt 0.653846 0.153846
vt 0.500000 0.153846
vt 0.653846 0.153846
vt 0.608786 0.262632
vt 0.500000 0.153846
vt 0.608786 0.262632
vt 0.500000 0.307692
vt 0.500000 0.153846
vt 0.500000 0.307692
vt 0.391214 0.262632
vt 0.500000 0.153846
vt 0.391214 0.262632
vt 0.346154 0.153846
vt 0.500000 0.153846
vt 0.346154 0.153846
vt 0.391214 0.045061
vt 0.500000 0.153846
vt 0.391214 0.045061
vt 0.500000 0.000000
vt 1.060831 1.001645
vt 1.063104 0.000709
vt 0.062217 0.000000
vt 0.062217 0.000000
vt 0.061459 1.000935
vt 1.060831 1.001645
# num_uvs: 198

g torch_base

usemtl wood1.jpg
f 1/1/1 2/2/2 3/3/3 
f 2/4/2 4/5/4 3/6/3 
f 2/7/2 5/8/5 4/9/4 
f 5/10/5 6/11/6 4/12/4 
f 5/13/5 7/14/7 6/15/6 
f 7/16/7 8/17/8 6/18/6 
f 7/19/7 9/20/9 8/21/8 
f 9/22/9 10/23/10 8/24/8 
f 11/25/11 12/26/12 13/27/13 
f 12/28/12 14/29/14 13/30/13 
f 12/31/12 15/32/15 14/33/14 
f 15/34/15 16/35/16 14/36/14 
f 15/37/15 17/38/17 16/39/16 
f 17/40/17 18/41/18 16/42/16 
f 17/43/17 1/44/1 18/45/18 
f 1/46/1 3/47/3 18/48/18 
f 3/49/3 4/50/4 19/51/19 
f 4/52/4 20/53/20 19/54/19 
f 4/55/4 6/56/6 20/57/20 
f 6/58/6 21/59/21 20/60/20 
f 6/61/6 8/62/8 21/63/21 
f 8/64/8 22/65/22 21/66/21 
f 8/67/8 10/68/10 22/69/22 
f 10/70/10 23/71/23 22/72/22 
f 13/73/13 14/74/14 24/75/24 
f 14/76/14 25/77/25 24/78/24 
f 14/79/14 16/80/16 25/81/25 
f 16/82/16 26/83/26 25/84/25 
f 16/85/16 18/86/18 26/87/26 
f 18/88/18 27/89/27 26/90/26 
f 18/91/18 3/92/3 27/93/27 
f 3/94/3 19/95/19 27/96/27 
f 19/97/19 20/98/20 28/99/28 
f 20/100/20 29/101/29 28/102/28 
f 20/103/20 21/104/21 29/105/29 
f 21/106/21 30/107/30 29/108/29 
f 21/109/21 22/110/22 31/111/31 
f 22/112/22 32/113/32 31/114/31 
f 22/115/22 23/116/23 32/117/32 
f 23/118/23 33/119/33 32/120/32 
f 24/121/24 25/122/25 34/123/34 
f 25/124/25 35/125/35 34/126/34 
f 25/127/25 26/128/26 35/129/35 
f 26/130/26 36/131/36 35/132/35 
f 26/133/26 27/134/27 37/135/37 
f 27/136/27 38/137/38 37/138/37 
f 27/139/27 19/140/19 38/141/38 
f 19/142/19 39/143/39 38/144/38 
f 40/145/40 41/146/41 42/147/42 
f 40/148/40 43/149/43 41/150/41 
f 40/151/40 44/152/44 43/153/43 
f 40/154/40 45/155/45 44/156/44 
f 40/157/40 46/158/46 45/159/45 
f 40/160/40 47/161/47 46/162/46 
f 40/163/40 48/164/48 47/165/47 
f 40/166/40 42/167/42 48/168/48 
f 49/169/49 50/170/50 51/171/51 
f 49/172/49 51/173/51 52/174/52 
f 49/175/49 53/176/53 54/177/54 
f 49/178/49 54/179/54 55/180/55 
f 49/181/49 55/182/55 56/183/56 
f 49/184/49 56/185/56 57/186/57 
f 49/187/49 58/188/58 59/189/59 
f 49/190/49 59/191/59 60/192/60 
# num_faces: 64

g flame3

usemtl flame3.tga
f 61/193/61 62/194/62 63/195/63 
f 63/196/63 64/197/64 61/198/61 
# num_faces: 2

