# Wavefront OBJ file generated by LithUnwrap
# num_vertices: 12
# num_vertex_normals: 12
# num_uvs: 18
# num_faces: 6
# num_groups: 1

mtllib palm2.mtl

v 93.165497 1.586727 0.328122
v -103.734375 1.586725 0.328128
v -103.734383 133.602936 0.328128
v 91.137192 132.518845 0.328122
v 62.137165 1.500000 65.593750
v -73.542130 1.499999 -78.375000
v -73.542137 117.310753 -78.375000
v 60.743668 116.356758 64.125000
v 56.749004 1.580532 -98.375000
v -68.587509 1.580531 116.328125
v -68.587517 146.828705 116.328125
v 55.463894 145.633118 -96.171875
# num_vertices: 12

vn -0.000000 -0.000000 -1.000000
vn -0.000000 0.000000 -1.000000
vn -0.000000 -0.000000 -1.000000
vn -0.000000 -0.000000 -1.000000
vn 0.727759 0.000030 -0.685832
vn 0.727747 0.000000 -0.685845
vn 0.727759 0.000030 -0.685832
vn 0.727771 0.000060 -0.685820
vn -0.863615 0.000003 -0.504152
vn -0.863616 0.000000 -0.504150
vn -0.863615 0.000003 -0.504152
vn -0.863614 0.000006 -0.504153
# num_vertex_normals: 12

vt 0.997449 0.006623
vt 0.000895 0.004967
vt 0.002551 0.996689
vt 0.997449 0.006623
vt 0.002551 0.996689
vt 0.993793 0.996770
vt 0.997179 0.008896
vt 0.000189 0.002273
vt 0.001845 0.993996
vt 0.997179 0.008896
vt 0.001845 0.993996
vt 0.995689 0.999044
vt 0.990427 0.003312
vt -0.002272 0.000000
vt 0.004350 0.996689
vt 0.990427 0.003312
vt 0.004350 0.996689
vt 0.995169 0.998426
# num_uvs: 18

g ungrouped

usemtl palm2.tga
f 1/1/1 2/2/2 3/3/3 
f 1/4/1 3/5/3 4/6/4 
f 5/7/5 6/8/6 7/9/7 
f 5/10/5 7/11/7 8/12/8 
f 9/13/9 10/14/10 11/15/11 
f 9/16/9 11/17/11 12/18/12 
# num_faces: 6

