# Wavefront OBJ file generated by LithUnwrap
# num_vertices: 64
# num_vertex_normals: 64
# num_uvs: 375
# num_faces: 125
# num_groups: 1

mtllib vulture_1.mtl

v 1.111145 -0.850872 14.859823
v 2.178390 -0.540167 13.382331
v 0.043900 -0.617843 13.516648
v 1.111145 0.391947 14.188236
v 2.178390 1.479413 12.710743
v 2.178390 -0.850872 12.173473
v 0.043900 1.479413 12.710743
v -0.311848 -0.928548 12.173473
v 1.822642 1.479413 10.427345
v 0.399649 1.479413 10.427346
v 2.178390 -0.540167 10.561663
v 0.043900 -0.540167 10.695981
v 2.178390 -1.549957 8.815535
v 0.043900 -1.549957 8.815536
v 1.822642 0.702651 8.949853
v 0.399649 0.780327 8.949853
v 2.178390 0.858004 7.606678
v 0.043900 0.858004 7.472360
v -0.311848 -1.394605 7.338043
v 2.889887 -1.472281 7.338043
v -0.311848 3.110612 4.920328
v 2.889887 3.032936 4.920328
v -1.379093 -2.948128 4.651693
v 3.245635 -2.870452 4.651693
v 0.755397 -2.482071 -4.616215
v 0.043900 -3.181157 -3.138722
v 1.822642 -3.258833 -3.138722
v -0.311848 -2.559748 -4.884850
v 2.534138 -2.482071 -4.750532
v 2.178390 -2.016014 -10.794820
v 0.043900 -1.938338 -10.929137
v -1.379094 1.246384 -10.123232
v 3.601383 1.246385 -9.988915
v -3.157835 0.858004 4.920328
v -2.802087 2.877584 3.980106
v 5.024377 0.780328 4.920328
v 5.024377 3.032936 3.845788
v -4.225081 0.858003 -10.257550
v 6.803118 0.702651 -10.257550
v -13.474538 2.489203 4.383058
v -12.407293 4.819488 1.965343
v 15.341079 2.256175 4.248740
v 14.629582 4.664136 1.831025
v -18.099266 2.566879 -14.018439
v 19.254311 2.566880 -13.749805
v 25.302032 4.586460 3.711470
v 24.946285 5.440898 2.368295
v 35.618736 6.528364 -7.974153
v 46.291187 13.053162 5.591914
v 43.089451 10.722877 -1.929866
v -23.079742 6.839067 2.636931
v -23.435492 4.897163 3.845789
v -33.752193 6.606039 -7.705516
v -40.867161 11.266608 -1.661229
v -44.424644 13.752245 5.726234
v 1.111145 -1.161577 -19.391140
v 10.716350 0.158918 -15.092980
v -8.494061 0.469623 -15.227297
v -1.023345 -5.278413 -7.033930
v -0.311848 -6.055175 -5.959390
v 0.755397 -4.967709 -7.168247
v 1.466893 -4.890032 -7.168247
v 2.178390 -5.822146 -5.959390
v 3.245635 -5.200737 -6.765295
# num_vertices: 64

vn 0.045471 -0.299000 0.953169
vn 0.792593 -0.442209 0.419818
vn -0.615579 -0.611394 0.497251
vn 0.013397 0.524128 0.851534
vn 0.636641 0.724879 0.263133
vn 0.640377 -0.767830 -0.018841
vn -0.695838 0.620549 0.361564
vn -0.880023 -0.472923 -0.043634
vn 0.781047 0.598555 -0.178038
vn -0.541042 0.803713 -0.247626
vn 0.909843 -0.411891 0.050312
vn -0.665563 -0.745175 0.041717
vn 0.624891 -0.715129 0.313211
vn -0.870653 -0.434551 0.230495
vn 0.674178 0.722994 -0.150876
vn -0.645669 0.762668 -0.038060
vn 0.576915 0.708440 0.406549
vn -0.628279 0.635552 0.448709
vn -0.736021 -0.614299 0.284444
vn 0.682097 -0.564370 0.465006
vn -0.525793 0.660562 0.535909
vn 0.338357 0.794634 0.504055
vn -0.439182 -0.822100 0.362312
vn 0.596200 -0.726390 0.341911
vn 0.331607 -0.808666 -0.485898
vn -0.481118 -0.871533 0.094633
vn -0.037056 -0.996253 0.078142
vn -0.809056 -0.476130 -0.344571
vn 0.752798 -0.658029 -0.017084
vn 0.212031 -0.968613 -0.129740
vn -0.286119 -0.955119 -0.076698
vn -0.106553 0.970822 -0.214826
vn 0.108473 0.969837 -0.218286
vn -0.567016 -0.361907 0.739943
vn -0.035601 0.856046 0.515672
vn 0.517617 -0.169356 0.838684
vn 0.105480 0.941865 0.319006
vn -0.796666 -0.086503 -0.598198
vn 0.616329 -0.217867 -0.756751
vn -0.076008 -0.186466 0.979517
vn 0.167607 0.966426 0.194752
vn 0.162373 -0.625124 0.763449
vn -0.096916 0.930193 0.354046
vn -0.179072 -0.080594 -0.980529
vn -0.082084 0.921550 -0.379483
vn 0.226263 -0.629481 0.743343
vn -0.235809 0.953564 0.187375
vn 0.296857 -0.950671 -0.090000
vn -0.307382 0.774793 0.552461
vn 0.738624 0.137685 -0.659907
vn 0.248892 0.933339 0.258711
vn -0.244370 -0.764648 0.596319
vn -0.516834 -0.015609 -0.855944
vn -0.748659 0.105843 -0.654451
vn 0.187639 0.525920 0.829578
vn -0.012355 -0.029548 -0.999487
vn 0.748723 -0.468971 0.468487
vn -0.745628 -0.475002 0.467345
vn -0.918588 -0.159370 -0.361659
vn 0.451660 -0.870322 0.196323
vn 0.461089 0.092865 -0.882481
vn -0.761560 -0.524023 -0.381348
vn 0.369702 -0.877108 0.306597
vn 0.537585 0.130941 -0.832981
# num_vertex_normals: 64

vt 0.743083 0.775828
vt 0.726399 0.725130
vt 0.779916 0.719751
vt 0.717946 0.724786
vt 0.783736 0.713372
vt 0.750841 0.774246
vt 0.710580 0.730167
vt 0.750841 0.774246
vt 0.783736 0.713372
vt 0.710580 0.730167
vt 0.678473 0.827511
vt 0.750841 0.774246
vt 0.710580 0.730167
vt 0.652157 0.713372
vt 0.678473 0.827511
vt 0.760345 0.734014
vt 0.747903 0.777767
vt 0.718012 0.727025
vt 0.750841 0.774246
vt 0.678473 0.827511
vt 0.717946 0.724786
vt 0.717946 0.724786
vt 0.678473 0.827511
vt 0.652157 0.709568
vt 0.743083 0.775828
vt 0.724370 0.779814
vt 0.695218 0.726706
vt 0.695218 0.726706
vt 0.726399 0.725130
vt 0.743083 0.775828
vt 0.676664 0.723483
vt 0.747903 0.777767
vt 0.686621 0.813476
vt 0.747903 0.777767
vt 0.676664 0.723483
vt 0.718012 0.727025
vt 0.678473 0.827511
vt 0.652157 0.713372
vt 0.566631 0.827511
vt 0.566631 0.827511
vt 0.652157 0.713372
vt 0.573210 0.728591
vt 0.652157 0.709568
vt 0.678473 0.827511
vt 0.566631 0.827511
vt 0.566631 0.827511
vt 0.579789 0.728591
vt 0.652157 0.709568
vt 0.724370 0.779814
vt 0.660609 0.775041
vt 0.695218 0.726706
vt 0.695218 0.726706
vt 0.660609 0.775041
vt 0.670714 0.723554
vt 0.660609 0.775041
vt 0.627951 0.723554
vt 0.670714 0.723554
vt 0.627951 0.723554
vt 0.660609 0.775041
vt 0.627951 0.775828
vt 0.573210 0.728591
vt 0.487683 0.679131
vt 0.494262 0.789465
vt 0.494262 0.789465
vt 0.566631 0.827511
vt 0.573210 0.728591
vt 0.579789 0.728591
vt 0.566631 0.827511
vt 0.494262 0.793269
vt 0.494262 0.793269
vt 0.487683 0.679131
vt 0.579789 0.728591
vt 0.637416 0.778245
vt 0.676664 0.723483
vt 0.686621 0.813476
vt 0.676664 0.723483
vt 0.637416 0.778245
vt 0.637416 0.743396
vt 0.637416 0.743396
vt 0.637416 0.778245
vt 0.604522 0.786958
vt 0.604522 0.786958
vt 0.601232 0.734683
vt 0.637416 0.743396
vt 0.627951 0.775828
vt 0.591767 0.784541
vt 0.627951 0.723554
vt 0.591767 0.784541
vt 0.591767 0.706130
vt 0.627951 0.723554
vt 0.487683 0.679131
vt 0.421894 0.797074
vt 0.415315 0.686740
vt 0.421894 0.797074
vt 0.487683 0.679131
vt 0.494262 0.793269
vt 0.494262 0.789465
vt 0.487683 0.679131
vt 0.428473 0.797074
vt 0.487683 0.679131
vt 0.415315 0.682935
vt 0.428473 0.797074
vt 0.538732 0.804382
vt 0.538732 0.725971
vt 0.601232 0.734683
vt 0.601232 0.734683
vt 0.604522 0.786958
vt 0.538732 0.804382
vt 0.415315 0.686740
vt 0.421894 0.797074
vt 0.296894 0.907408
vt 0.296894 0.907408
vt 0.283736 0.619772
vt 0.415315 0.686740
vt 0.428473 0.797074
vt 0.415315 0.682935
vt 0.296894 0.903603
vt 0.415315 0.682935
vt 0.283736 0.623577
vt 0.296894 0.903603
vt 0.591767 0.784541
vt 0.525977 0.810678
vt 0.591767 0.706130
vt 0.525977 0.810678
vt 0.525977 0.697417
vt 0.591767 0.706130
vt 0.896768 0.392972
vt 0.866202 0.392972
vt 0.878428 0.363890
vt 0.866202 0.392972
vt 0.896768 0.392972
vt 0.841749 0.546313
vt 0.841749 0.546313
vt 0.860088 0.358602
vt 0.866202 0.392972
vt 0.844941 0.409033
vt 0.831256 0.381431
vt 0.817571 0.542443
vt 0.841749 0.546313
vt 0.896768 0.392972
vt 0.888326 0.543024
vt 0.865468 0.383731
vt 0.838098 0.257015
vt 0.831256 0.381431
vt 0.860088 0.358602
vt 0.866202 0.239630
vt 0.878428 0.363890
vt 0.902881 0.242274
vt 0.878428 0.363890
vt 0.866202 0.239630
vt 0.882213 0.548312
vt 0.841749 0.255493
vt 0.860088 0.551601
vt 0.841749 0.255493
vt 0.882213 0.548312
vt 0.914940 0.258137
vt 0.860088 0.551601
vt 0.811182 0.551601
vt 0.841749 0.546313
vt 0.811182 0.551601
vt 0.860088 0.551601
vt 0.817296 0.533094
vt 0.783358 0.547043
vt 0.824414 0.547043
vt 0.817571 0.542443
vt 0.824414 0.547043
vt 0.783358 0.547043
vt 0.783358 0.528642
vt 0.860088 0.551601
vt 0.841749 0.255493
vt 0.817558 0.226957
vt 0.810728 0.270816
vt 0.783358 0.528642
vt 0.751933 0.225794
vt 0.783358 0.528642
vt 0.810728 0.270816
vt 0.824414 0.547043
vt 0.860088 0.551601
vt 0.817558 0.226957
vt 0.866202 0.239630
vt 0.817571 0.542443
vt 0.831256 0.381431
vt 0.783358 0.547043
vt 0.831256 0.381431
vt 0.751933 0.225794
vt 0.783358 0.547043
vt 0.751933 0.225794
vt 0.831256 0.381431
vt 0.838098 0.257015
vt 0.811182 0.551601
vt 0.860088 0.358602
vt 0.841749 0.546313
vt 0.860088 0.358602
vt 0.811182 0.551601
vt 0.817558 0.226957
vt 0.817558 0.226957
vt 0.866202 0.239630
vt 0.860088 0.358602
vt 0.817558 0.226957
vt 0.817296 0.533094
vt 0.860088 0.551601
vt 0.817296 0.533094
vt 0.633898 0.541026
vt 0.811182 0.551601
vt 0.633898 0.541026
vt 0.817296 0.533094
vt 0.652238 0.493437
vt 0.593034 0.510865
vt 0.783358 0.547043
vt 0.586318 0.548087
vt 0.783358 0.547043
vt 0.593034 0.510865
vt 0.783358 0.528642
vt 0.817558 0.226957
vt 0.652238 0.493437
vt 0.817296 0.533094
vt 0.751933 0.225794
vt 0.783358 0.528642
vt 0.593034 0.510865
vt 0.751933 0.225794
vt 0.586318 0.548087
vt 0.783358 0.547043
vt 0.633898 0.541026
vt 0.817558 0.226957
vt 0.811182 0.551601
vt 0.817558 0.226957
vt 0.552072 0.209422
vt 0.652238 0.493437
vt 0.817558 0.226957
vt 0.633898 0.541026
vt 0.552072 0.210599
vt 0.751933 0.225794
vt 0.509657 0.225925
vt 0.586318 0.548087
vt 0.751933 0.225794
vt 0.593034 0.510865
vt 0.509657 0.225925
vt 0.400176 0.534004
vt 0.586318 0.548087
vt 0.396120 0.569551
vt 0.400176 0.534004
vt 0.593034 0.510865
vt 0.586318 0.548087
vt 0.586318 0.548087
vt 0.059696 0.255140
vt 0.396120 0.569551
vt 0.059696 0.255140
vt 0.586318 0.548087
vt 0.509657 0.225925
vt 0.593034 0.510865
vt 0.400176 0.534004
vt 0.509657 0.225925
vt 0.509657 0.225925
vt 0.400176 0.534004
vt 0.059696 0.255140
vt 0.001026 0.392100
vt 0.002166 0.554363
vt 0.396120 0.569551
vt 0.001026 0.392100
vt 0.396120 0.569551
vt 0.059696 0.255140
vt 0.059696 0.255140
vt 0.400176 0.534004
vt 0.001026 0.392100
vt 0.633898 0.541026
vt 0.652238 0.493437
vt 0.467663 0.543141
vt 0.467663 0.543141
vt 0.461550 0.566935
vt 0.633898 0.541026
vt 0.467663 0.543141
vt 0.652238 0.493437
vt 0.552072 0.210599
vt 0.552072 0.210599
vt 0.290151 0.250121
vt 0.467663 0.543141
vt 0.461550 0.566935
vt 0.552072 0.210599
vt 0.633898 0.541026
vt 0.552072 0.210599
vt 0.461550 0.566935
vt 0.290151 0.250121
vt 0.290151 0.250121
vt 0.014887 0.273010
vt 0.467663 0.543141
vt 0.290151 0.250121
vt 0.461550 0.566935
vt 0.014887 0.273010
vt 0.461550 0.566935
vt 0.467663 0.543141
vt -0.002700 0.540395
vt 0.467663 0.543141
vt 0.014887 0.273010
vt -0.002700 0.540395
vt -0.002700 0.540395
vt 0.014887 0.273010
vt 0.461550 0.566935
vt 0.400176 0.534004
vt 0.396120 0.569551
vt 0.002166 0.554363
vt 0.002166 0.554363
vt 0.001026 0.392100
vt 0.400176 0.534004
vt 0.914940 0.258137
vt 0.911394 0.010069
vt 0.841749 0.255493
vt 0.858626 0.130711
vt 0.810728 0.270816
vt 0.810475 0.244739
vt 0.841749 0.255493
vt 0.911394 0.010069
vt 0.824829 0.068273
vt 0.902881 0.242274
vt 0.866202 0.239630
vt 0.911394 0.010069
vt 0.810475 0.244739
vt 0.838098 0.257015
vt 0.858626 0.130711
vt 0.824829 0.068273
vt 0.911394 0.010069
vt 0.866202 0.239630
vt 0.866202 0.239630
vt 0.841749 0.255493
vt 0.824829 0.068273
vt 0.810728 0.270816
vt 0.838098 0.257015
vt 0.810475 0.244739
vt 0.866202 0.239630
vt 0.817558 0.226957
vt 0.841749 0.255493
vt 0.751933 0.225794
vt 0.838098 0.257015
vt 0.810728 0.270816
vt 0.878428 0.313657
vt 0.860088 0.337452
vt 0.847862 0.316301
vt 0.817571 0.346928
vt 0.838098 0.360729
vt 0.851783 0.340027
vt 0.851783 0.340027
vt 0.844941 0.409033
vt 0.865468 0.383731
vt 0.844941 0.409033
vt 0.851783 0.340027
vt 0.838098 0.360729
vt 0.838098 0.360729
vt 0.831256 0.381431
vt 0.844941 0.409033
vt 0.831256 0.381431
vt 0.838098 0.360729
vt 0.817571 0.346928
vt 0.817571 0.346928
vt 0.865468 0.383731
vt 0.831256 0.381431
vt 0.865468 0.383731
vt 0.817571 0.346928
vt 0.851783 0.340027
vt 0.860088 0.337452
vt 0.878428 0.363890
vt 0.866202 0.392972
vt 0.878428 0.363890
vt 0.860088 0.337452
vt 0.878428 0.313657
vt 0.847862 0.316301
vt 0.866202 0.392972
vt 0.860088 0.358602
vt 0.866202 0.392972
vt 0.847862 0.316301
vt 0.860088 0.337452
vt 0.878428 0.313657
vt 0.860088 0.358602
vt 0.878428 0.363890
vt 0.860088 0.358602
vt 0.878428 0.313657
vt 0.847862 0.316301
# num_uvs: 375

g Group

usemtl skin
f 3/1/3 2/2/2 1/3/1 
f 3/4/3 1/5/1 4/6/4 
f 2/7/2 4/8/4 1/9/1 
f 2/10/2 5/11/5 4/12/4 
f 2/13/2 6/14/6 5/15/5 
f 4/16/4 5/17/5 7/18/7 
f 4/19/4 7/20/7 3/21/3 
f 3/22/3 7/23/7 8/24/8 
f 3/25/3 8/26/8 6/27/6 
f 6/28/6 2/29/2 3/30/3 
f 10/31/10 5/32/5 9/33/9 
f 5/34/5 10/35/10 7/36/7 
f 5/37/5 6/38/6 9/39/9 
f 9/40/9 6/41/6 11/42/11 
f 8/43/8 7/44/7 10/45/10 
f 10/46/10 12/47/12 8/48/8 
f 8/49/8 12/50/12 6/51/6 
f 6/52/6 12/53/12 11/54/11 
f 12/55/12 13/56/13 11/57/11 
f 13/58/13 12/59/12 14/60/14 
f 11/61/11 13/62/13 15/63/15 
f 15/64/15 9/65/9 11/66/11 
f 12/67/12 10/68/10 16/69/16 
f 16/70/16 14/71/14 12/72/12 
f 15/73/15 10/74/10 9/75/9 
f 10/76/10 15/77/15 16/78/16 
f 16/79/16 15/80/15 17/81/17 
f 17/82/17 18/83/18 16/84/16 
f 14/85/14 19/86/19 13/87/13 
f 19/88/19 20/89/20 13/90/13 
f 14/91/14 18/92/18 19/93/19 
f 18/94/18 14/95/14 16/96/16 
f 15/97/15 13/98/13 17/99/17 
f 13/100/13 20/101/20 17/102/17 
f 22/103/22 21/104/21 18/105/18 
f 18/106/18 17/107/17 22/108/22 
f 19/109/19 18/110/18 21/111/21 
f 21/112/21 23/113/23 19/114/19 
f 17/115/17 20/116/20 22/117/22 
f 20/118/20 24/119/24 22/120/22 
f 19/121/19 23/122/23 20/123/20 
f 23/124/23 24/125/24 20/126/20 
f 27/127/27 26/128/26 25/129/25 
f 26/130/26 27/131/27 23/132/23 
f 23/133/23 28/134/28 26/135/26 
f 27/136/27 29/137/29 24/138/24 
f 23/139/23 27/140/27 24/141/24 
f 25/142/25 30/143/30 29/144/29 
f 28/145/28 31/146/31 25/147/25 
f 30/148/30 25/149/25 31/150/31 
f 22/151/22 32/152/32 21/153/21 
f 32/154/32 22/155/22 33/156/33 
f 21/157/21 34/158/34 23/159/23 
f 34/160/34 21/161/21 35/162/35 
f 36/163/36 22/164/22 24/165/24 
f 22/166/22 36/167/36 37/168/37 
f 21/169/21 32/170/32 38/171/38 
f 33/172/33 37/173/37 39/174/39 
f 37/175/37 33/176/33 22/177/22 
f 21/178/21 38/179/38 31/180/31 
f 24/181/24 29/182/29 36/183/36 
f 29/184/29 39/185/39 36/186/36 
f 39/187/39 29/188/29 30/189/30 
f 34/190/34 28/191/28 23/192/23 
f 28/193/28 34/194/34 38/195/38 
f 38/196/38 31/197/31 28/198/28 
f 38/199/38 35/200/35 21/201/21 
f 35/202/35 40/203/40 34/204/34 
f 40/205/40 35/206/35 41/207/41 
f 43/208/43 36/209/36 42/210/42 
f 36/211/36 43/212/43 37/213/37 
f 38/214/38 41/215/41 35/216/35 
f 39/217/39 37/218/37 43/219/43 
f 39/220/39 42/221/42 36/222/36 
f 40/223/40 38/224/38 34/225/34 
f 38/226/38 44/227/44 41/228/41 
f 38/229/38 40/230/40 44/231/44 
f 39/232/39 45/233/45 42/234/42 
f 39/235/39 43/236/43 45/237/45 
f 47/238/47 42/239/42 46/240/46 
f 47/241/47 43/242/43 42/243/42 
f 42/244/42 48/245/48 46/246/46 
f 48/247/48 42/248/42 45/249/45 
f 43/250/43 47/251/47 45/252/45 
f 45/253/45 47/254/47 48/255/48 
f 50/256/50 49/257/49 46/258/46 
f 50/259/50 46/260/46 48/261/48 
f 48/262/48 47/263/47 50/264/50 
f 40/265/40 41/266/41 51/267/51 
f 51/268/51 52/269/52 40/270/40 
f 51/271/51 41/272/41 44/273/44 
f 44/274/44 53/275/53 51/276/51 
f 52/277/52 44/278/44 40/279/40 
f 44/280/44 52/281/52 53/282/53 
f 53/283/53 54/284/54 51/285/51 
f 53/286/53 52/287/52 54/288/54 
f 52/289/52 51/290/51 55/291/55 
f 51/292/51 54/293/54 55/294/55 
f 55/295/55 54/296/54 52/297/52 
f 47/298/47 46/299/46 49/300/49 
f 49/301/49 50/302/50 47/303/47 
f 33/304/33 56/305/56 32/306/32 
f 56/307/56 33/308/33 57/309/57 
f 32/310/32 56/311/56 58/312/58 
f 30/313/30 31/314/31 56/315/56 
f 57/316/57 30/317/30 56/318/56 
f 58/319/58 56/320/56 31/321/31 
f 31/322/31 32/323/32 58/324/58 
f 33/325/33 30/326/30 57/327/57 
f 31/328/31 38/329/38 32/330/32 
f 39/331/39 30/332/30 33/333/33 
f 61/334/61 60/335/60 59/336/59 
f 64/337/64 63/338/63 62/339/62 
f 62/340/62 27/341/27 25/342/25 
f 27/343/27 62/344/62 63/345/63 
f 63/346/63 29/347/29 27/348/27 
f 29/349/29 63/350/63 64/351/64 
f 64/352/64 25/353/25 29/354/29 
f 25/355/25 64/356/64 62/357/62 
f 60/358/60 25/359/25 26/360/26 
f 25/361/25 60/362/60 61/363/61 
f 59/364/59 26/365/26 28/366/28 
f 26/367/26 59/368/59 60/369/60 
f 61/370/61 28/371/28 25/372/25 
f 28/373/28 61/374/61 59/375/59 
# num_faces: 125

