# Wavefront OBJ file generated by LithUnwrap
# num_vertices: 81
# num_vertex_normals: 81
# num_uvs: 384
# num_faces: 128
# num_groups: 1

mtllib naziflag_1.mtl

v -17.144987 27.936588 0.000000
v -13.083029 -26.521898 0.000000
v 18.106667 28.084398 0.000000
v 13.134124 -24.977282 0.000000
v -14.790863 0.000000 0.000000
v 0.321168 -27.671124 0.000000
v 0.173358 0.000000 0.000000
v 15.055024 0.000000 0.000000
v 0.554745 26.606297 0.000000
v -15.891112 12.591241 0.000000
v -7.308752 0.000000 0.000000
v -7.735702 12.591241 0.000000
v 14.355898 -11.999999 0.000000
v 7.655468 0.000000 0.000000
v 7.264628 -11.999999 0.000000
v -6.639598 -27.113138 0.000000
v -6.917912 -11.999999 0.000000
v -14.009183 -11.999999 0.000000
v 0.173358 -11.999999 0.000000
v 6.321168 -27.120529 0.000000
v 9.404610 26.901917 0.000000
v 8.575118 12.591241 0.000000
v 16.730530 12.591241 0.000000
v 0.419708 12.591241 0.000000
v -8.295121 27.049726 0.000000
v -16.322832 19.379562 0.000000
v -11.813407 12.591241 0.000000
v -12.112562 19.379562 0.000000
v 13.449874 -19.980431 0.000000
v 10.810263 -11.999999 0.000000
v 10.075316 -19.980431 0.000000
v -9.287300 -27.523312 0.000000
v -10.172031 -19.980431 0.000000
v -13.546589 -19.980431 0.000000
v 6.700758 -19.980431 0.000000
v 9.616788 -26.011953 0.000000
v -10.690636 -6.000000 0.000000
v -7.106305 -6.000000 0.000000
v -11.049808 0.000000 0.000000
v 13.829543 27.419252 0.000000
v 13.149058 19.379562 0.000000
v 17.359327 19.379562 0.000000
v -7.902292 19.379562 0.000000
v -12.646149 27.567062 0.000000
v 12.080292 6.000000 0.000000
v 8.160584 6.000000 0.000000
v 11.396523 0.000000 0.000000
v -11.437956 6.000000 0.000000
v -15.357664 6.000000 0.000000
v -3.598540 6.000000 0.000000
v -7.518248 6.000000 0.000000
v -3.567697 0.000000 0.000000
v 10.815351 -6.000000 0.000000
v 14.565969 -6.000000 0.000000
v 3.646689 -6.000000 0.000000
v 7.231020 -6.000000 0.000000
v 3.914413 0.000000 0.000000
v -3.422916 -19.980431 0.000000
v -6.797473 -19.980431 0.000000
v -2.678832 -27.671124 0.000000
v -14.274968 -6.000000 0.000000
v -10.463548 -11.999999 0.000000
v 0.062357 -6.000000 0.000000
v 3.718993 -11.999999 0.000000
v 3.321168 -27.671124 0.000000
v 3.326200 -19.980431 0.000000
v -0.048358 -19.980431 0.000000
v -3.372277 -11.999999 0.000000
v -3.521974 -6.000000 0.000000
v 4.728518 19.379562 0.000000
v 8.938788 19.379562 0.000000
v 4.979678 26.680201 0.000000
v 16.000000 6.000000 0.000000
v 12.652823 12.591241 0.000000
v 0.321168 6.000000 0.000000
v -3.657997 12.591241 0.000000
v -3.870188 26.680201 0.000000
v -3.692022 19.379562 0.000000
v 0.518248 19.379562 0.000000
v 4.497413 12.591241 0.000000
v 4.240876 6.000000 0.000000
# num_vertices: 81

vn 0.000000 0.000000 1.000000
vn 0.000000 0.000000 1.000000
vn 0.000000 0.000000 1.000000
vn 0.000000 0.000000 1.000000
vn 0.000000 0.000000 1.000000
vn 0.000000 0.000000 1.000000
vn 0.000000 0.000000 1.000000
vn 0.000000 0.000000 1.000000
vn 0.000000 0.000000 1.000000
vn 0.000000 0.000000 1.000000
vn 0.000000 0.000000 1.000000
vn 0.000000 0.000000 1.000000
vn 0.000000 0.000000 1.000000
vn 0.000000 0.000000 1.000000
vn 0.000000 0.000000 1.000000
vn 0.000000 0.000000 1.000000
vn 0.000000 0.000000 1.000000
vn 0.000000 0.000000 1.000000
vn 0.000000 0.000000 1.000000
vn 0.000000 0.000000 1.000000
vn 0.000000 0.000000 1.000000
vn 0.000000 0.000000 1.000000
vn 0.000000 0.000000 1.000000
vn 0.000000 0.000000 1.000000
vn 0.000000 0.000000 1.000000
vn 0.000000 0.000000 1.000000
vn 0.000000 0.000000 1.000000
vn 0.000000 0.000000 1.000000
vn 0.000000 0.000000 1.000000
vn 0.000000 0.000000 1.000000
vn 0.000000 0.000000 1.000000
vn 0.000000 0.000000 1.000000
vn 0.000000 0.000000 1.000000
vn 0.000000 0.000000 1.000000
vn 0.000000 0.000000 1.000000
vn 0.000000 0.000000 1.000000
vn 0.000000 0.000000 1.000000
vn 0.000000 0.000000 1.000000
vn 0.000000 0.000000 1.000000
vn 0.000000 0.000000 1.000000
vn 0.000000 0.000000 1.000000
vn 0.000000 0.000000 1.000000
vn 0.000000 0.000000 1.000000
vn 0.000000 0.000000 1.000000
vn 0.000000 0.000000 1.000000
vn 0.000000 0.000000 1.000000
vn 0.000000 0.000000 1.000000
vn 0.000000 0.000000 1.000000
vn 0.000000 0.000000 1.000000
vn 0.000000 0.000000 1.000000
vn 0.000000 0.000000 1.000000
vn 0.000000 0.000000 1.000000
vn 0.000000 0.000000 1.000000
vn 0.000000 0.000000 1.000000
vn 0.000000 0.000000 1.000000
vn 0.000000 0.000000 1.000000
vn 0.000000 0.000000 1.000000
vn 0.000000 0.000000 1.000000
vn 0.000000 0.000000 1.000000
vn 0.000000 0.000000 1.000000
vn 0.000000 0.000000 1.000000
vn 0.000000 0.000000 1.000000
vn 0.000000 0.000000 1.000000
vn 0.000000 0.000000 1.000000
vn 0.000000 0.000000 1.000000
vn 0.000000 0.000000 1.000000
vn 0.000000 0.000000 1.000000
vn 0.000000 0.000000 1.000000
vn 0.000000 0.000000 1.000000
vn 0.000000 0.000000 1.000000
vn 0.000000 0.000000 1.000000
vn 0.000000 0.000000 1.000000
vn 0.000000 0.000000 1.000000
vn 0.000000 0.000000 1.000000
vn 0.000000 0.000000 1.000000
vn 0.000000 0.000000 1.000000
vn 0.000000 0.000000 1.000000
vn 0.000000 0.000000 1.000000
vn 0.000000 0.000000 1.000000
vn 0.000000 0.000000 1.000000
vn 0.000000 0.000000 1.000000
# num_vertex_normals: 81

vt 0.118153 0.964642
vt 0.136373 0.822022
vt 0.229682 0.822022
vt 0.789201 0.082727
vt 0.796198 0.166010
vt 0.721411 0.166010
vt 0.208174 0.056983
vt 0.292295 0.040293
vt 0.197901 0.166010
vt 0.789201 0.082727
vt 0.721411 0.166010
vt 0.711249 0.065482
vt 0.170325 0.499023
vt 0.261195 0.399021
vt 0.253235 0.499023
vt 0.899403 0.967105
vt 0.804613 0.956019
vt 0.882840 0.822022
vt 0.118153 0.964642
vt 0.229682 0.822022
vt 0.217856 0.958483
vt 0.831772 0.499023
vt 0.765846 0.599025
vt 0.750692 0.499023
vt 0.170325 0.499023
vt 0.253235 0.499023
vt 0.157763 0.599025
vt 0.501963 0.499023
vt 0.418370 0.599025
vt 0.419054 0.499023
vt 0.145941 0.708881
vt 0.244632 0.599025
vt 0.236312 0.708881
vt 0.831772 0.499023
vt 0.750692 0.499023
vt 0.820933 0.399021
vt 0.501963 0.499023
vt 0.578939 0.399021
vt 0.584873 0.499023
vt 0.816278 0.299019
vt 0.737812 0.399021
vt 0.737699 0.299019
vt 0.505239 0.037829
vt 0.422262 0.166010
vt 0.438753 0.037829
vt 0.170325 0.499023
vt 0.181758 0.399021
vt 0.261195 0.399021
vt 0.350974 0.047129
vt 0.347475 0.166010
vt 0.272688 0.166010
vt 0.501963 0.499023
vt 0.499503 0.399021
vt 0.578939 0.399021
vt 0.505239 0.037829
vt 0.571725 0.037829
vt 0.497050 0.166010
vt 0.659121 0.299019
vt 0.580542 0.299019
vt 0.646624 0.166010
vt 0.505239 0.037829
vt 0.497050 0.166010
vt 0.422262 0.166010
vt 0.501963 0.499023
vt 0.419054 0.499023
vt 0.499503 0.399021
vt 0.344806 0.299019
vt 0.423385 0.299019
vt 0.340631 0.399021
vt 0.510416 0.942470
vt 0.602915 0.822022
vt 0.608481 0.943702
vt 0.831772 0.499023
vt 0.852715 0.599025
vt 0.765846 0.599025
vt 0.706547 0.947397
vt 0.696223 0.822022
vt 0.789532 0.822022
vt 0.501963 0.499023
vt 0.505239 0.599025
vt 0.418370 0.599025
vt 0.510416 0.942470
vt 0.412350 0.943702
vt 0.509607 0.822022
vt 0.326682 0.708881
vt 0.417052 0.708881
vt 0.322990 0.822022
vt 0.510416 0.942470
vt 0.509607 0.822022
vt 0.602915 0.822022
vt 0.501963 0.499023
vt 0.584873 0.499023
vt 0.505239 0.599025
vt 0.688164 0.708881
vt 0.597793 0.708881
vt 0.678977 0.599025
vt 0.145941 0.708881
vt 0.236312 0.708881
vt 0.136373 0.822022
vt 0.326682 0.708881
vt 0.229682 0.822022
vt 0.236312 0.708881
vt 0.136373 0.822022
vt 0.236312 0.708881
vt 0.229682 0.822022
vt 0.816278 0.299019
vt 0.737699 0.299019
vt 0.796198 0.166010
vt 0.659121 0.299019
vt 0.721411 0.166010
vt 0.737699 0.299019
vt 0.796198 0.166010
vt 0.737699 0.299019
vt 0.721411 0.166010
vt 0.350974 0.047129
vt 0.272688 0.166010
vt 0.292295 0.040293
vt 0.187649 0.299019
vt 0.197901 0.166010
vt 0.272688 0.166010
vt 0.292295 0.040293
vt 0.272688 0.166010
vt 0.197901 0.166010
vt 0.659121 0.299019
vt 0.646624 0.166010
vt 0.721411 0.166010
vt 0.638211 0.047006
vt 0.711249 0.065482
vt 0.646624 0.166010
vt 0.721411 0.166010
vt 0.646624 0.166010
vt 0.711249 0.065482
vt 0.344806 0.299019
vt 0.340631 0.399021
vt 0.261195 0.399021
vt 0.336144 0.499023
vt 0.253235 0.499023
vt 0.340631 0.399021
vt 0.261195 0.399021
vt 0.340631 0.399021
vt 0.253235 0.499023
vt 0.706547 0.947397
vt 0.789532 0.822022
vt 0.804613 0.956019
vt 0.868905 0.708881
vt 0.882840 0.822022
vt 0.789532 0.822022
vt 0.804613 0.956019
vt 0.789532 0.822022
vt 0.882840 0.822022
vt 0.326682 0.708881
vt 0.322990 0.822022
vt 0.229682 0.822022
vt 0.314284 0.949860
vt 0.217856 0.958483
vt 0.322990 0.822022
vt 0.229682 0.822022
vt 0.322990 0.822022
vt 0.217856 0.958483
vt 0.688164 0.708881
vt 0.678977 0.599025
vt 0.765846 0.599025
vt 0.667782 0.499023
vt 0.750692 0.499023
vt 0.678977 0.599025
vt 0.765846 0.599025
vt 0.678977 0.599025
vt 0.750692 0.499023
vt 0.336144 0.499023
vt 0.244632 0.599025
vt 0.253235 0.499023
vt 0.145941 0.708881
vt 0.157763 0.599025
vt 0.244632 0.599025
vt 0.253235 0.499023
vt 0.244632 0.599025
vt 0.157763 0.599025
vt 0.326682 0.708881
vt 0.331501 0.599025
vt 0.418370 0.599025
vt 0.336144 0.499023
vt 0.419054 0.499023
vt 0.331501 0.599025
vt 0.418370 0.599025
vt 0.331501 0.599025
vt 0.419054 0.499023
vt 0.336144 0.499023
vt 0.331501 0.599025
vt 0.244632 0.599025
vt 0.326682 0.708881
vt 0.236312 0.708881
vt 0.331501 0.599025
vt 0.244632 0.599025
vt 0.331501 0.599025
vt 0.236312 0.708881
vt 0.667782 0.499023
vt 0.737812 0.399021
vt 0.750692 0.499023
vt 0.816278 0.299019
vt 0.820933 0.399021
vt 0.737812 0.399021
vt 0.750692 0.499023
vt 0.737812 0.399021
vt 0.820933 0.399021
vt 0.659121 0.299019
vt 0.658376 0.399021
vt 0.578939 0.399021
vt 0.667782 0.499023
vt 0.584873 0.499023
vt 0.658376 0.399021
vt 0.578939 0.399021
vt 0.658376 0.399021
vt 0.584873 0.499023
vt 0.667782 0.499023
vt 0.658376 0.399021
vt 0.737812 0.399021
vt 0.659121 0.299019
vt 0.737699 0.299019
vt 0.658376 0.399021
vt 0.737812 0.399021
vt 0.658376 0.399021
vt 0.737699 0.299019
vt 0.344806 0.299019
vt 0.347475 0.166010
vt 0.422262 0.166010
vt 0.350974 0.047129
vt 0.438753 0.037829
vt 0.347475 0.166010
vt 0.422262 0.166010
vt 0.347475 0.166010
vt 0.438753 0.037829
vt 0.187649 0.299019
vt 0.266227 0.299019
vt 0.181758 0.399021
vt 0.344806 0.299019
vt 0.261195 0.399021
vt 0.266227 0.299019
vt 0.181758 0.399021
vt 0.266227 0.299019
vt 0.261195 0.399021
vt 0.344806 0.299019
vt 0.266227 0.299019
vt 0.347475 0.166010
vt 0.187649 0.299019
vt 0.272688 0.166010
vt 0.266227 0.299019
vt 0.347475 0.166010
vt 0.266227 0.299019
vt 0.272688 0.166010
vt 0.501963 0.299019
vt 0.580542 0.299019
vt 0.499503 0.399021
vt 0.659121 0.299019
vt 0.578939 0.399021
vt 0.580542 0.299019
vt 0.499503 0.399021
vt 0.580542 0.299019
vt 0.578939 0.399021
vt 0.638211 0.047006
vt 0.571837 0.166010
vt 0.571725 0.037829
vt 0.501963 0.299019
vt 0.497050 0.166010
vt 0.571837 0.166010
vt 0.571725 0.037829
vt 0.571837 0.166010
vt 0.497050 0.166010
vt 0.501963 0.299019
vt 0.571837 0.166010
vt 0.580542 0.299019
vt 0.638211 0.047006
vt 0.646624 0.166010
vt 0.571837 0.166010
vt 0.580542 0.299019
vt 0.571837 0.166010
vt 0.646624 0.166010
vt 0.501963 0.299019
vt 0.423385 0.299019
vt 0.497050 0.166010
vt 0.344806 0.299019
vt 0.422262 0.166010
vt 0.423385 0.299019
vt 0.497050 0.166010
vt 0.423385 0.299019
vt 0.422262 0.166010
vt 0.336144 0.499023
vt 0.420067 0.399021
vt 0.419054 0.499023
vt 0.501963 0.299019
vt 0.499503 0.399021
vt 0.420067 0.399021
vt 0.419054 0.499023
vt 0.420067 0.399021
vt 0.499503 0.399021
vt 0.501963 0.299019
vt 0.420067 0.399021
vt 0.423385 0.299019
vt 0.336144 0.499023
vt 0.340631 0.399021
vt 0.420067 0.399021
vt 0.423385 0.299019
vt 0.420067 0.399021
vt 0.340631 0.399021
vt 0.688164 0.708881
vt 0.696223 0.822022
vt 0.602915 0.822022
vt 0.706547 0.947397
vt 0.608481 0.943702
vt 0.696223 0.822022
vt 0.602915 0.822022
vt 0.696223 0.822022
vt 0.608481 0.943702
vt 0.868905 0.708881
vt 0.778534 0.708881
vt 0.852715 0.599025
vt 0.688164 0.708881
vt 0.765846 0.599025
vt 0.778534 0.708881
vt 0.852715 0.599025
vt 0.778534 0.708881
vt 0.765846 0.599025
vt 0.688164 0.708881
vt 0.778534 0.708881
vt 0.696223 0.822022
vt 0.868905 0.708881
vt 0.789532 0.822022
vt 0.778534 0.708881
vt 0.696223 0.822022
vt 0.778534 0.708881
vt 0.789532 0.822022
vt 0.507423 0.708881
vt 0.417052 0.708881
vt 0.505239 0.599025
vt 0.326682 0.708881
vt 0.418370 0.599025
vt 0.417052 0.708881
vt 0.505239 0.599025
vt 0.417052 0.708881
vt 0.418370 0.599025
vt 0.314284 0.949860
vt 0.416298 0.822022
vt 0.412350 0.943702
vt 0.507423 0.708881
vt 0.509607 0.822022
vt 0.416298 0.822022
vt 0.412350 0.943702
vt 0.416298 0.822022
vt 0.509607 0.822022
vt 0.507423 0.708881
vt 0.416298 0.822022
vt 0.417052 0.708881
vt 0.314284 0.949860
vt 0.322990 0.822022
vt 0.416298 0.822022
vt 0.417052 0.708881
vt 0.416298 0.822022
vt 0.322990 0.822022
vt 0.507423 0.708881
vt 0.597793 0.708881
vt 0.509607 0.822022
vt 0.688164 0.708881
vt 0.602915 0.822022
vt 0.597793 0.708881
vt 0.509607 0.822022
vt 0.597793 0.708881
vt 0.602915 0.822022
vt 0.667782 0.499023
vt 0.592108 0.599025
vt 0.584873 0.499023
vt 0.507423 0.708881
vt 0.505239 0.599025
vt 0.592108 0.599025
vt 0.584873 0.499023
vt 0.592108 0.599025
vt 0.505239 0.599025
vt 0.507423 0.708881
vt 0.592108 0.599025
vt 0.597793 0.708881
vt 0.667782 0.499023
vt 0.678977 0.599025
vt 0.592108 0.599025
vt 0.597793 0.708881
vt 0.592108 0.599025
vt 0.678977 0.599025
# num_uvs: 384

g flag

usemtl naziflag_1
f 1/1/1 26/2/26 28/3/28 
f 4/4/4 29/5/29 31/6/31 
f 2/7/2 32/8/32 34/9/34 
f 4/10/4 31/11/31 36/12/36 
f 5/13/5 37/14/37 39/15/39 
f 3/16/3 40/17/40 42/18/42 
f 1/19/1 28/20/28 44/21/44 
f 8/22/8 45/23/45 47/24/47 
f 5/25/5 39/26/39 49/27/49 
f 7/28/7 50/29/50 52/30/52 
f 10/31/10 48/32/48 27/33/27 
f 8/34/8 47/35/47 54/36/54 
f 7/37/7 55/38/55 57/39/57 
f 13/40/13 53/41/53 30/42/30 
f 6/43/6 58/44/58 60/45/60 
f 5/46/5 61/47/61 37/48/37 
f 16/49/16 59/50/59 33/51/33 
f 7/52/7 63/53/63 55/54/55 
f 6/55/6 65/56/65 67/57/67 
f 15/58/15 64/59/64 35/60/35 
f 6/61/6 67/62/67 58/63/58 
f 7/64/7 52/65/52 63/66/63 
f 17/67/17 68/68/68 38/69/38 
f 9/70/9 70/71/70 72/72/72 
f 8/73/8 73/74/73 45/75/45 
f 21/76/21 71/77/71 41/78/41 
f 7/79/7 75/80/75 50/81/50 
f 9/82/9 77/83/77 79/84/79 
f 12/85/12 76/86/76 43/87/43 
f 9/88/9 79/89/79 70/90/70 
f 7/91/7 57/92/57 75/93/75 
f 22/94/22 80/95/80 46/96/46 
f 10/97/10 27/98/27 26/99/26 
f 12/100/12 28/101/28 27/102/27 
f 26/103/26 27/104/27 28/105/28 
f 13/106/13 30/107/30 29/108/29 
f 15/109/15 31/110/31 30/111/30 
f 29/112/29 30/113/30 31/114/31 
f 16/115/16 33/116/33 32/117/32 
f 18/118/18 34/119/34 33/120/33 
f 32/121/32 33/122/33 34/123/34 
f 15/124/15 35/125/35 31/126/31 
f 20/127/20 36/128/36 35/129/35 
f 31/130/31 35/131/35 36/132/36 
f 17/133/17 38/134/38 37/135/37 
f 11/136/11 39/137/39 38/138/38 
f 37/139/37 38/140/38 39/141/39 
f 21/142/21 41/143/41 40/144/40 
f 23/145/23 42/146/42 41/147/41 
f 40/148/40 41/149/41 42/150/42 
f 12/151/12 43/152/43 28/153/28 
f 25/154/25 44/155/44 43/156/43 
f 28/157/28 43/158/43 44/159/44 
f 22/160/22 46/161/46 45/162/45 
f 14/163/14 47/164/47 46/165/46 
f 45/166/45 46/167/46 47/168/47 
f 11/169/11 48/170/48 39/171/39 
f 10/172/10 49/173/49 48/174/48 
f 39/175/39 48/176/48 49/177/49 
f 12/178/12 51/179/51 50/180/50 
f 11/181/11 52/182/52 51/183/51 
f 50/184/50 51/185/51 52/186/52 
f 11/187/11 51/188/51 48/189/48 
f 12/190/12 27/191/27 51/192/51 
f 48/193/48 51/194/51 27/195/27 
f 14/196/14 53/197/53 47/198/47 
f 13/199/13 54/200/54 53/201/53 
f 47/202/47 53/203/53 54/204/54 
f 15/205/15 56/206/56 55/207/55 
f 14/208/14 57/209/57 56/210/56 
f 55/211/55 56/212/56 57/213/57 
f 14/214/14 56/215/56 53/216/53 
f 15/217/15 30/218/30 56/219/56 
f 53/220/53 56/221/56 30/222/30 
f 17/223/17 59/224/59 58/225/58 
f 16/226/16 60/227/60 59/228/59 
f 58/229/58 59/230/59 60/231/60 
f 18/232/18 62/233/62 61/234/61 
f 17/235/17 37/236/37 62/237/62 
f 61/238/61 62/239/62 37/240/37 
f 17/241/17 62/242/62 59/243/59 
f 18/244/18 33/245/33 62/246/62 
f 59/247/59 62/248/62 33/249/33 
f 19/250/19 64/251/64 63/252/63 
f 15/253/15 55/254/55 64/255/64 
f 63/256/63 64/257/64 55/258/55 
f 20/259/20 66/260/66 65/261/65 
f 19/262/19 67/263/67 66/264/66 
f 65/265/65 66/266/66 67/267/67 
f 19/268/19 66/269/66 64/270/64 
f 20/271/20 35/272/35 66/273/66 
f 64/274/64 66/275/66 35/276/35 
f 19/277/19 68/278/68 67/279/67 
f 17/280/17 58/281/58 68/282/68 
f 67/283/67 68/284/68 58/285/58 
f 11/286/11 69/287/69 52/288/52 
f 19/289/19 63/290/63 69/291/69 
f 52/292/52 69/293/69 63/294/63 
f 19/295/19 69/296/69 68/297/68 
f 11/298/11 38/299/38 69/300/69 
f 68/301/68 69/302/69 38/303/38 
f 22/304/22 71/305/71 70/306/70 
f 21/307/21 72/308/72 71/309/71 
f 70/310/70 71/311/71 72/312/72 
f 23/313/23 74/314/74 73/315/73 
f 22/316/22 45/317/45 74/318/74 
f 73/319/73 74/320/74 45/321/45 
f 22/322/22 74/323/74 71/324/71 
f 23/325/23 41/326/41 74/327/74 
f 71/328/71 74/329/74 41/330/41 
f 24/331/24 76/332/76 75/333/75 
f 12/334/12 50/335/50 76/336/76 
f 75/337/75 76/338/76 50/339/50 
f 25/340/25 78/341/78 77/342/77 
f 24/343/24 79/344/79 78/345/78 
f 77/346/77 78/347/78 79/348/79 
f 24/349/24 78/350/78 76/351/76 
f 25/352/25 43/353/43 78/354/78 
f 76/355/76 78/356/78 43/357/43 
f 24/358/24 80/359/80 79/360/79 
f 22/361/22 70/362/70 80/363/80 
f 79/364/79 80/365/80 70/366/70 
f 14/367/14 81/368/81 57/369/57 
f 24/370/24 75/371/75 81/372/81 
f 57/373/57 81/374/81 75/375/75 
f 24/376/24 81/377/81 80/378/80 
f 14/379/14 46/380/46 81/381/81 
f 80/382/80 81/383/81 46/384/46 
# num_faces: 128

