# Wavefront OBJ file generated by LithUnwrap
# num_vertices: 42
# num_vertex_normals: 42
# num_uvs: 216
# num_faces: 72
# num_groups: 1

mtllib czech_hedgehog1.mtl

v 25.156250 30.953125 -18.718752
v -31.234375 -0.593749 18.125000
v -27.875000 -3.374999 20.156250
v 21.562500 33.750000 -20.750002
v 21.562500 33.531250 -21.203127
v -27.875000 -3.593749 19.937500
v -31.234375 -0.796874 17.671875
v 24.921875 30.531250 -19.171877
v -30.562500 2.828126 21.750000
v 22.234375 37.187500 -17.125002
v -30.781250 2.828126 21.515625
v -31.453125 -0.374999 17.453125
v 21.796875 37.406250 -17.359377
v 21.343750 33.968750 -21.421877
v -27.875000 46.625000 -11.031252
v 22.687500 -0.156249 16.765625
v 23.359375 3.046876 20.156250
v -28.328125 43.406250 -14.421877
v 23.578125 3.265626 20.156250
v -28.093750 43.625000 -14.875002
v -27.656250 46.843750 -11.031252
v 22.906250 0.046876 16.546875
v 19.328125 -2.312499 19.265625
v -31.906250 41.265625 -12.156252
v 19.328125 -2.734374 19.031250
v 22.906250 -0.156249 16.093750
v -31.906250 40.828125 -12.390627
v -28.328125 43.203125 -15.093752
v -2.812500 1.328124 -27.765625
v 1.875000 48.343750 29.437498
v 5.453125 50.500000 26.718748
v -6.390625 -0.796876 -25.265625
v -5.937500 -1.234376 -25.046875
v 5.671875 50.500000 27.171873
v 2.328125 47.921875 29.656248
v -2.578125 1.109374 -27.531250
v -1.468750 51.140625 27.171873
v -9.750000 1.749999 -27.312500
v -1.687500 51.140625 27.624998
v 1.875000 47.921875 29.890623
v -9.968750 1.749999 -27.078125
v -6.390625 -1.234376 -24.812500
# num_vertices: 42

vn 0.798348 0.178789 0.575043
vn -0.617578 0.687583 0.381873
vn -0.271794 -0.416121 0.867739
vn 0.325833 0.919417 -0.220239
vn 0.243129 -0.350229 -0.904560
vn 0.136589 -0.988828 -0.059684
vn -0.724193 -0.686467 0.065628
vn 0.794755 -0.153023 -0.587324
vn 0.215265 -0.425221 0.879118
vn 0.689915 0.702010 0.176636
vn -0.766453 0.436312 0.471362
vn -0.802465 -0.039828 -0.595368
vn -0.284428 0.925609 -0.249695
vn 0.223705 0.372780 -0.900550
vn -0.736509 0.087977 0.670682
vn -0.352009 -0.935050 0.042088
vn 0.162157 -0.491605 0.855587
vn -0.954609 -0.075616 -0.288105
vn 0.692801 0.427172 0.580991
vn 0.254155 0.680834 -0.686928
vn -0.499284 0.852012 -0.157452
vn 0.952944 -0.234178 0.192508
vn 0.087091 0.225842 0.970263
vn -0.894813 0.307348 0.323802
vn -0.031535 -0.850593 0.524879
vn 0.562557 -0.397685 -0.724829
vn -0.632865 -0.524200 -0.569821
vn -0.327855 0.132516 -0.935388
vn 0.107454 0.424114 -0.899211
vn -0.892910 0.302913 0.333099
vn -0.042647 0.997104 0.062960
vn -0.655484 -0.495148 -0.570236
vn 0.370340 -0.915455 0.157449
vn 0.986741 0.149363 0.063502
vn 0.437904 0.463188 0.770518
vn 0.520390 -0.608013 -0.599596
vn 0.183199 0.852904 -0.488869
vn -0.266371 -0.215834 -0.939395
vn -0.326615 0.811020 0.485354
vn -0.155661 -0.488770 0.858413
vn -0.983779 -0.163252 -0.074349
vn -0.370303 -0.926949 0.060347
# num_vertex_normals: 42

vt 0.832031 0.003906
vt 0.761719 0.003906
vt 0.761719 1.000000
vt 0.832031 0.003906
vt 0.761719 1.000000
vt 0.832031 1.000000
vt 0.832031 1.000000
vt 0.902344 1.000000
vt 0.902344 0.003906
vt 0.832031 1.000000
vt 0.902344 0.003906
vt 0.832031 0.003906
vt 0.996094 0.570313
vt 0.996094 0.503906
vt 0.988281 0.503906
vt 0.996094 0.570313
vt 0.988281 0.503906
vt 0.988281 0.570313
vt 0.996094 0.503906
vt 0.996094 0.437500
vt 0.988281 0.437500
vt 0.996094 0.503906
vt 0.988281 0.437500
vt 0.988281 0.503906
vt 0.910156 0.003906
vt 0.917969 1.000000
vt 0.917969 0.003906
vt 0.910156 1.000000
vt 0.917969 1.000000
vt 0.910156 0.003906
vt 0.957031 1.000000
vt 0.957031 0.003906
vt 0.949219 0.003906
vt 0.957031 1.000000
vt 0.949219 0.003906
vt 0.949219 1.000000
vt 0.074219 1.000000
vt 0.152344 1.000000
vt 0.156250 0.003906
vt 0.074219 1.000000
vt 0.156250 0.003906
vt 0.078125 0.003906
vt 0.988281 0.003906
vt 0.988281 0.074219
vt 0.996094 0.074219
vt 0.988281 0.003906
vt 0.996094 0.074219
vt 0.996094 0.003906
vt 0.234375 1.000000
vt 0.312500 1.000000
vt 0.312500 0.003906
vt 0.234375 1.000000
vt 0.312500 0.003906
vt 0.234375 0.003906
vt 0.996094 0.148438
vt 0.996094 0.074219
vt 0.988281 0.074219
vt 0.996094 0.148438
vt 0.988281 0.074219
vt 0.988281 0.148438
vt 0.976563 0.003906
vt 0.976563 1.000000
vt 0.984375 1.000000
vt 0.976563 0.003906
vt 0.984375 1.000000
vt 0.984375 0.003906
vt 0.968750 0.003906
vt 0.964844 0.003906
vt 0.964844 1.000000
vt 0.968750 0.003906
vt 0.964844 1.000000
vt 0.968750 1.000000
vt 0.468750 1.000000
vt 0.542969 1.000000
vt 0.542969 0.003906
vt 0.468750 1.000000
vt 0.542969 0.003906
vt 0.468750 0.003906
vt 0.613281 1.000000
vt 0.687500 1.000000
vt 0.687500 0.003906
vt 0.613281 1.000000
vt 0.687500 0.003906
vt 0.617188 0.003906
vt 0.988281 0.636719
vt 0.988281 0.703125
vt 0.996094 0.703125
vt 0.988281 0.636719
vt 0.996094 0.703125
vt 0.996094 0.636719
vt 0.996094 0.636719
vt 0.996094 0.570313
vt 0.988281 0.570313
vt 0.996094 0.636719
vt 0.988281 0.570313
vt 0.988281 0.636719
vt 0.968750 0.003906
vt 0.968750 1.000000
vt 0.976563 1.000000
vt 0.968750 0.003906
vt 0.976563 1.000000
vt 0.976563 0.003906
vt 0.984375 0.003906
vt 0.984375 1.000000
vt 0.988281 1.000000
vt 0.984375 0.003906
vt 0.988281 1.000000
vt 0.988281 0.003906
vt 0.390625 0.003906
vt 0.312500 0.003906
vt 0.312500 1.000000
vt 0.390625 0.003906
vt 0.312500 1.000000
vt 0.390625 1.000000
vt 0.996094 0.218750
vt 0.996094 0.148438
vt 0.988281 0.148438
vt 0.996094 0.218750
vt 0.988281 0.148438
vt 0.988281 0.218750
vt 0.468750 0.003906
vt 0.390625 0.003906
vt 0.390625 1.000000
vt 0.468750 0.003906
vt 0.390625 1.000000
vt 0.468750 1.000000
vt 0.996094 0.292969
vt 0.996094 0.218750
vt 0.988281 0.218750
vt 0.996094 0.292969
vt 0.988281 0.218750
vt 0.988281 0.292969
vt 0.949219 1.000000
vt 0.949219 0.003906
vt 0.941406 0.003906
vt 0.949219 1.000000
vt 0.941406 0.003906
vt 0.941406 1.000000
vt 0.906250 1.000000
vt 0.910156 1.000000
vt 0.910156 0.003906
vt 0.906250 1.000000
vt 0.910156 0.003906
vt 0.902344 0.003906
vt 0.687500 1.000000
vt 0.761719 1.000000
vt 0.757813 0.003906
vt 0.687500 1.000000
vt 0.757813 0.003906
vt 0.687500 0.003906
vt 0.613281 0.003906
vt 0.542969 0.003906
vt 0.542969 1.000000
vt 0.613281 0.003906
vt 0.542969 1.000000
vt 0.613281 1.000000
vt 0.988281 0.769531
vt 0.988281 0.835938
vt 0.996094 0.835938
vt 0.988281 0.769531
vt 0.996094 0.835938
vt 0.996094 0.769531
vt 0.988281 0.703125
vt 0.988281 0.769531
vt 0.996094 0.769531
vt 0.988281 0.703125
vt 0.996094 0.769531
vt 0.996094 0.703125
vt 0.941406 1.000000
vt 0.941406 0.003906
vt 0.933594 0.003906
vt 0.941406 1.000000
vt 0.933594 0.003906
vt 0.933594 1.000000
vt 0.917969 0.003906
vt 0.917969 1.000000
vt 0.925781 1.000000
vt 0.917969 0.003906
vt 0.925781 1.000000
vt 0.925781 0.003906
vt 0.234375 0.003906
vt 0.156250 0.003906
vt 0.156250 1.000000
vt 0.234375 0.003906
vt 0.156250 1.000000
vt 0.234375 1.000000
vt 0.988281 0.363281
vt 0.988281 0.437500
vt 0.996094 0.437500
vt 0.988281 0.363281
vt 0.996094 0.437500
vt 0.996094 0.363281
vt 0.000000 1.000000
vt 0.074219 1.000000
vt 0.074219 0.003906
vt 0.000000 1.000000
vt 0.074219 0.003906
vt 0.000000 0.003906
vt 0.988281 0.292969
vt 0.988281 0.363281
vt 0.996094 0.363281
vt 0.988281 0.292969
vt 0.996094 0.363281
vt 0.996094 0.292969
vt 0.933594 1.000000
vt 0.933594 0.003906
vt 0.925781 0.003906
vt 0.933594 1.000000
vt 0.925781 0.003906
vt 0.925781 1.000000
vt 0.957031 0.003906
vt 0.957031 1.000000
vt 0.964844 1.000000
vt 0.957031 0.003906
vt 0.964844 1.000000
vt 0.960938 0.003906
# num_uvs: 216

g md2->unnamed

usemtl metal_rusty1.tga
f 2/1/2 3/2/3 1/3/1 
f 2/4/2 1/5/1 4/6/4 
f 6/7/6 7/8/7 5/9/5 
f 6/10/6 5/11/5 8/12/8 
f 4/13/4 1/14/1 8/15/8 
f 4/16/4 8/17/8 5/18/5 
f 3/19/3 2/20/2 7/21/7 
f 3/22/3 7/23/7 6/24/6 
f 6/25/6 1/26/1 3/27/3 
f 8/28/8 1/29/1 6/30/6 
f 2/31/2 4/32/4 5/33/5 
f 2/34/2 5/35/5 7/36/7 
f 5/37/5 10/38/10 9/39/9 
f 5/40/5 9/41/9 7/42/7 
f 7/43/7 9/44/9 11/45/11 
f 7/46/7 11/47/11 12/48/12 
f 12/49/12 11/50/11 13/51/13 
f 12/52/12 13/53/13 14/54/14 
f 14/55/14 13/56/13 10/57/10 
f 14/58/14 10/59/10 5/60/5 
f 5/61/5 7/62/7 12/63/12 
f 5/64/5 12/65/12 14/66/14 
f 11/67/11 9/68/9 10/69/10 
f 11/70/11 10/71/10 13/72/13 
f 16/73/16 17/74/17 15/75/15 
f 16/76/16 15/77/15 18/78/18 
f 20/79/20 21/80/21 19/81/19 
f 20/82/20 19/83/19 22/84/22 
f 18/85/18 15/86/15 21/87/21 
f 18/88/18 21/89/21 20/90/20 
f 22/91/22 19/92/19 17/93/17 
f 22/94/22 17/95/17 16/96/16 
f 15/97/15 17/98/17 19/99/19 
f 15/100/15 19/101/19 21/102/21 
f 16/103/16 18/104/18 20/105/20 
f 16/106/16 20/107/20 22/108/22 
f 20/109/20 24/110/24 23/111/23 
f 20/112/20 23/113/23 22/114/22 
f 22/115/22 23/116/23 25/117/25 
f 22/118/22 25/119/25 26/120/26 
f 26/121/26 25/122/25 27/123/27 
f 26/124/26 27/125/27 28/126/28 
f 24/127/24 20/128/20 28/129/28 
f 24/130/24 28/131/28 27/132/27 
f 20/133/20 22/134/22 26/135/26 
f 20/136/20 26/137/26 28/138/28 
f 25/139/25 23/140/23 24/141/24 
f 25/142/25 24/143/24 27/144/27 
f 30/145/30 31/146/31 29/147/29 
f 30/148/30 29/149/29 32/150/32 
f 34/151/34 35/152/35 33/153/33 
f 34/154/34 33/155/33 36/156/36 
f 36/157/36 33/158/33 32/159/32 
f 36/160/36 32/161/32 29/162/29 
f 35/163/35 34/164/34 31/165/31 
f 35/166/35 31/167/31 30/168/30 
f 29/169/29 31/170/31 34/171/34 
f 29/172/29 34/173/34 36/174/36 
f 33/175/33 35/176/35 30/177/30 
f 33/178/33 30/179/30 32/180/32 
f 37/181/37 35/182/35 33/183/33 
f 37/184/37 33/185/33 38/186/38 
f 39/187/39 40/188/40 35/189/35 
f 39/190/39 35/191/35 37/192/37 
f 40/193/40 39/194/39 41/195/41 
f 40/196/40 41/197/41 42/198/42 
f 42/199/42 41/200/41 38/201/38 
f 42/202/42 38/203/38 33/204/33 
f 33/205/33 35/206/35 40/207/40 
f 33/208/33 40/209/40 42/210/42 
f 41/211/41 39/212/39 37/213/37 
f 41/214/41 37/215/37 38/216/38 
# num_faces: 72

