# Wavefront OBJ file
# Exported by Misfit Model 3D 1.3.8
# Sun Apr 11 09:55:10 2010

mtllib corn_stalk_1.mtl

# 8 Vertices
v 0.0 57.584431 15.065693
v 0.0 -1.899758 15.065693
v 0.0 57.584431 -13.422871
v 0.0 -1.899758 -13.422871
v 14.59734 55.109031 -2.654303
v 14.597342 -4.375158 -2.654305
v -13.362397 55.10903 2.809337
v -13.362395 -4.375159 2.809335

# 12 Texture Coordinates
vt 0.000044 1.0
vt 0.000044 0.0
vt 0.998388 0.0
vt 0.998388 0.0
vt 0.998388 1.0
vt 0.000044 1.0
vt 0.000044 1.0
vt 0.000044 0.0
vt 0.998388 0.0
vt 0.998388 0.0
vt 0.998388 1.0
vt 0.000044 1.0

# 12 Vertex Normals
vn 1.0 0.0 0.0
vn 1.0 0.0 0.0
vn 1.0 0.0 0.0
vn 1.0 0.0 0.0
vn 1.0 0.0 0.0
vn 1.0 0.0 0.0
vn -0.191784 0.0 -0.981437
vn -0.191784 0.0 -0.981437
vn -0.191784 0.0 -0.981437
vn -0.191784 0.0 -0.981437
vn -0.191784 0.0 -0.981437
vn -0.191784 0.0 -0.981437

# corn, 2 grouped triangles

usemtl corn_stalk_1
o corn
g corn

f 1/1/1 2/2/2 4/3/3
f 4/4/4 3/5/5 1/6/6
# corn, 2 grouped triangles

usemtl corn_stalk_1
o corn
g corn

f 5/7/7 6/8/8 8/9/9
f 8/10/10 7/11/11 5/12/12
