# Wavefront OBJ file generated by LithUnwrap
# num_vertices: 8
# num_vertex_normals: 8
# num_uvs: 36
# num_faces: 12
# num_groups: 1

mtllib brick_1.mtl

v -4.602542 0.045104 7.512523
v 4.156007 0.045104 7.512523
v -4.602542 3.035828 7.512523
v 4.156007 3.035828 7.512523
v 4.156007 0.045104 3.271360
v -4.602542 0.045104 3.271360
v 4.156007 3.035828 3.271360
v -4.602542 3.035828 3.271360
# num_vertices: 8

vn -0.577350 -0.577350 0.577350
vn 0.577350 -0.577350 0.577350
vn -0.577350 0.577350 0.577350
vn 0.577350 0.577350 0.577350
vn 0.577350 -0.577350 -0.577350
vn -0.577350 -0.577350 -0.577350
vn 0.577350 0.577350 -0.577350
vn -0.577350 0.577350 -0.577350
# num_vertex_normals: 8

vt 0.553390 0.704353
vt 0.707029 0.704353
vt 0.553390 0.753426
vt 0.707029 0.704353
vt 0.707029 0.753426
vt 0.553390 0.753426
vt 0.715941 0.706121
vt 0.866683 0.706121
vt 0.715941 0.753969
vt 0.866683 0.706121
vt 0.866683 0.753969
vt 0.715941 0.753969
vt 0.367001 0.860174
vt 0.307957 0.815492
vt 0.367001 0.815492
vt 0.367001 0.860174
vt 0.307957 0.860174
vt 0.307957 0.815492
vt 0.794695 0.922499
vt 0.732459 0.876221
vt 0.794695 0.876221
vt 0.794695 0.922499
vt 0.732459 0.922499
vt 0.732459 0.876221
vt 0.199511 0.872422
vt 0.335153 0.923487
vt 0.199511 0.923487
vt 0.199511 0.872422
vt 0.335153 0.872422
vt 0.335153 0.923487
vt 0.211456 0.982760
vt 0.071027 0.934886
vt 0.211456 0.934886
vt 0.211456 0.982760
vt 0.071027 0.982760
vt 0.071027 0.934886
# num_uvs: 36

g debris_brick_1

usemtl brick
f 1/1/1 2/2/2 3/3/3 
f 2/4/2 4/5/4 3/6/3 
f 5/7/5 6/8/6 7/9/7 
f 6/10/6 8/11/8 7/12/7 
f 3/13/3 6/14/6 1/15/1 
f 3/16/3 8/17/8 6/18/6 
f 7/19/7 2/20/2 5/21/5 
f 7/22/7 4/23/4 2/24/2 
f 3/25/3 7/26/7 8/27/8 
f 3/28/3 4/29/4 7/30/7 
f 2/31/2 6/32/6 5/33/5 
f 2/34/2 1/35/1 6/36/6 
# num_faces: 12

