# OBJ File Exported By Crafty (c) 2006 Ryan Gregg
# http://nemesis.thewavelength.net/

mtllib jgdpnthr_1.mtl

v 38.380001 110.279999 -45.130001
v -57.220001 101.029999 -45.130001
v -57.220001 101.029999 44.919998
v 38.380001 110.279999 44.919998
v -128.130005 49.560001 -75.680000
v -128.130005 49.590000 75.389999
v -140.789993 38.200001 -45.380001
v -140.860001 38.220001 45.360001
v -140.889999 38.259998 -75.750000
v -137.029999 19.290001 75.540001
v -140.860001 38.279999 75.349998
v -137.089996 19.530001 45.189999
v -96.550003 0.020000 45.189999
v -96.550003 0.020000 75.540001
v 87.730003 -0.360000 45.189999
v 87.730003 -0.360000 75.540001
v 123.589996 21.000000 -45.820000
v 87.510002 -0.410000 -45.779999
v 87.730003 -0.360000 -75.750000
v 123.589996 21.219999 -75.750000
v 123.379997 20.860001 45.189999
v 123.489998 21.230000 75.540001
v 123.589996 21.219999 75.540001
v 124.750000 32.790001 -75.750000
v 152.630005 77.790001 -55.730000
v 152.630005 77.790001 55.520000
v 124.650002 32.799999 75.540001
v 56.500000 79.050003 -55.730000
v 56.500000 79.050003 55.520000
v -96.550003 0.020000 -75.750000
v -140.860001 38.240002 -75.750000
v -137.029999 19.290001 -75.750000
v -140.850006 38.290001 -75.750000
v 124.750000 32.790001 75.540001
v -137.080002 19.480000 -45.919998
v -96.449997 -0.050000 -45.810001
v -99.160004 19.350000 -45.830002
v -100.040001 19.750000 45.189999
v -128.149994 49.570000 -45.860001
v -139.949997 47.080002 -45.860001
v -139.949997 47.080002 -75.750000
v -128.169998 49.580002 45.439999
v -139.949997 47.080002 45.439999
v -139.949997 47.080002 75.339996
v -128.050003 49.599998 45.439999
v -65.699997 95.320000 18.410000
v -104.059998 87.669998 -0.500000
v -104.059998 83.500000 5.120000
v -65.699997 95.669998 -18.650000
v -104.059998 83.599998 -6.210000
v -100.949997 69.199997 -17.290001
v -104.059998 76.919998 -4.100000
v -104.059998 76.860001 2.900000
v -100.949997 69.029999 15.940000
v -250.649994 87.089996 -0.510000
v -250.649994 83.330002 4.570000
v -250.649994 83.419998 -5.660000
v -250.649994 77.379997 -3.760000
v -250.649994 77.330002 2.560000
v -278.950012 90.089996 -0.480000
v -278.950012 84.230003 7.430000
v -278.950012 84.370003 -8.500000
v -278.950012 74.970001 -5.540000
v -278.950012 74.889999 4.300000
v -278.950012 81.709999 -0.560000
v 158.339996 86.800003 8.410000
v 158.339996 86.800003 20.830000
v 171.059998 87.410004 8.410000
v 171.059998 87.410004 20.830000
v 146.779999 46.270000 20.830000
v 136.360001 53.040001 20.830000
v 146.779999 46.270000 8.410000
v 136.360001 53.040001 8.410000
v 150.339996 74.019997 53.950001
v 136.710007 52.209999 65.150002
v 144.470001 47.360001 65.150002
v 158.100006 69.169998 53.950001
v 136.460007 51.820000 31.520000
v 144.220001 46.970001 31.520000
v 150.490005 74.269997 31.059999
v 158.250000 69.419998 31.059999
v 150.339996 74.019997 -48.060001
v 136.710007 52.209999 -36.860001
v 144.470001 47.360001 -36.860001
v 158.100006 69.169998 -48.060001
v 136.460007 51.820000 -70.489998
v 144.220001 46.970001 -70.489998
v 150.490005 74.269997 -70.949997
v 158.250000 69.419998 -70.949997
v 158.339996 86.800003 -21.990000
v 158.339996 86.800003 -9.570000
v 171.059998 87.410004 -21.990000
v 171.059998 87.410004 -9.570000
v 146.779999 46.270000 -9.570000
v 136.360001 53.040001 -9.570000
v 146.779999 46.270000 -21.990000
v 136.360001 53.040001 -21.990000
v -89.150002 75.180000 -44.060001
v -89.150002 77.389999 -44.060001
v -89.150002 77.389999 -41.980000
v -89.150002 75.180000 -41.980000
v -107.570000 75.180000 -44.060001
v -107.570000 75.180000 -41.980000
v -107.570000 77.389999 -41.980000
v -107.570000 77.389999 -44.060001
vn -0.096295 0.995353 0.000000
vn -0.587398 0.809298 -0.000200
vn -0.474285 -0.880372 -0.000200
vn -0.809298 -0.587398 -0.000000
vn -0.980241 -0.197808 0.000200
vn -0.431786 -0.901971 -0.003000
vn -0.002100 -0.999998 -0.000000
vn 0.513185 -0.858276 -0.001900
vn 0.995037 -0.099504 -0.000600
vn 0.850065 -0.526678 -0.000000
vn 0.013100 0.999914 0.000000
vn 0.864919 0.501911 0.000000
vn 0.005300 0.403812 -0.914827
vn -0.029599 0.305691 -0.951671
vn 0.000000 0.000000 -1.000000
vn 0.028401 0.432011 -0.901421
vn 0.014799 0.495180 -0.868664
vn 0.005300 0.403895 0.914790
vn -0.029599 0.305690 0.951671
vn 0.028099 0.431692 0.901583
vn 0.000000 -0.000000 1.000000
vn 0.014600 0.494599 0.868999
vn -0.018100 -0.032301 0.999314
vn 0.540688 0.841182 0.008300
vn -0.665073 0.746769 0.003700
vn 0.787198 -0.616699 0.001400
vn 0.955525 -0.294908 0.000800
vn -0.041202 0.999151 -0.000200
vn -0.205990 0.978554 -0.000200
vn -0.995616 0.093502 0.002400
vn -0.011600 0.054901 0.998424
vn -0.320694 0.947183 -0.000200
vn 0.664388 -0.747386 0.001700
vn -0.372610 0.795522 0.477814
vn -0.383383 0.923558 0.007600
vn -0.690200 0.440100 0.574400
vn -0.366396 0.805591 -0.465594
vn -0.685362 0.452975 -0.570168
vn -0.954764 -0.088497 -0.283889
vn -0.970593 -0.218698 -0.100599
vn -0.960023 -0.272507 0.064001
vn -0.923878 0.019499 0.382191
vn -0.003200 0.803879 0.594785
vn -0.003800 0.969817 0.243805
vn -0.003200 0.814108 -0.580705
vn -0.003800 0.531594 -0.846991
vn -0.003200 -0.300704 -0.953712
vn -0.003800 -0.641290 -0.767289
vn -0.003800 -0.927904 0.372801
vn -0.003200 -0.317306 0.948318
vn 0.085404 0.800936 0.592627
vn 0.102500 0.964697 0.242599
vn 0.102505 0.067403 0.992446
vn 0.085402 0.811119 -0.578613
vn 0.102503 0.528816 -0.842524
vn 0.085403 -0.299610 -0.950232
vn 0.102497 -0.637884 -0.763281
vn 0.085401 -0.996309 -0.008700
vn 0.102504 -0.923033 0.370813
vn 0.085398 -0.316093 0.944877
vn -1.000000 0.000000 0.000000
vn -0.544598 -0.838697 -0.000000
vn -0.837986 0.545691 0.000000
vn 0.211606 0.338609 0.916825
vn 1.000000 0.000000 0.000000
vt 0.386719 -0.742188
vt 0.343750 -0.769531
vt 0.378906 -0.722656
vt 0.339844 -0.683594
vt 0.398438 -0.710938
vt 0.457031 -0.683594
vt 0.417969 -0.722656
vt 0.449219 -0.769531
vt 0.410156 -0.742188
vt 0.343750 -0.769531
vt 0.386719 -0.742188
vt 0.859375 -0.996094
vt 0.000000 -0.996094
vt 0.859375 -0.996094
vt 0.925781 -0.984375
vt 0.824219 -0.953125
vt 0.988281 -0.847656
vt 0.878906 -0.105469
vt 0.988281 -0.230469
vt 0.917969 -0.109375
vt 0.917969 -0.109375
vt 0.988281 -0.230469
vt 0.878906 -0.105469
vt 0.988281 -0.847656
vt 0.820313 -0.953125
vt 0.925781 -0.984375
vt 0.859375 -0.996094
vt 0.140625 -0.675781
vt 0.148438 -0.640625
vt 0.171875 -0.675781
vt 0.148438 -0.707031
vt 0.113281 -0.695313
vt 0.113281 -0.652344
vt 0.148438 -0.640625
vt 0.921875 -0.984375
vt 0.988281 -0.847656
vt 0.988281 -0.230469
vt 0.917969 -0.109375
vt 0.921875 -0.859375
vt 0.859375 -0.996094
vt 0.917969 -0.109375
vt 0.988281 -0.230469
vt 0.921875 -0.855469
vt 0.988281 -0.847656
vt 0.859375 -0.996094
vt 0.105469 -0.054688
vt 0.222656 -0.007813
vt 0.703125 -0.054688
vt 0.582031 -0.007813
vt 0.703125 -0.011719
vt 0.046875 -0.625000
vt 0.046875 -0.375000
vt 0.281250 -0.625000
vt 0.281250 -0.375000
vt 0.074219 -0.863281
vt 0.207031 -0.640625
vt 0.726563 -0.863281
vt 0.597656 -0.640625
vt 0.859375 -0.996094
vt 0.000000 -0.996094
vt 0.859375 -0.996094
vt 0.859375 -0.996094
vt 0.000000 -0.359375
vt 0.000000 -0.289063
vt 0.109375 -0.359375
vt 0.109375 -0.289063
vt 0.109375 -0.152344
vt 0.109375 -0.316406
vt 0.000000 -0.156250
vt 0.000000 -0.316406
vt 0.117188 -0.101563
vt 0.117188 -0.332031
vt 0.000000 -0.101563
vt 0.000000 -0.332031
vt 0.105469 -0.132813
vt 0.105469 -0.277344
vt 0.000000 -0.132813
vt 0.000000 -0.277344
vt 0.183594 -0.234375
vt 0.101563 -0.054688
vt 0.625000 -0.234375
vt 0.707031 -0.054688
vt 0.296875 -0.636719
vt 0.296875 -0.382813
vt 0.609375 -0.636719
vt 0.609375 -0.382813
vt 0.222656 -0.359375
vt 0.183594 -0.234375
vt 0.585938 -0.359375
vt 0.628906 -0.234375
vt 0.105469 -0.320313
vt 0.000000 -0.320313
vt 0.105469 -0.164063
vt 0.000000 -0.164063
vt 0.089844 -0.328125
vt 0.000000 -0.328125
vt 0.089844 -0.089844
vt 0.000000 -0.089844
vt 0.109375 -0.289063
vt 0.109375 -0.359375
vt 0.003906 -0.292969
vt 0.000000 -0.359375
vt 0.246094 -0.996094
vt 0.246094 -0.949219
vt 0.585938 -0.996094
vt 0.585938 -0.949219
vt 0.570313 -0.996094
vt 0.250000 -0.996094
vt 0.570313 -0.941406
vt 0.250000 -0.941406
vt 0.207031 -0.914063
vt 0.203125 -0.863281
vt 0.597656 -0.914063
vt 0.597656 -0.863281
vt 0.859375 -0.996094
vt 0.824219 -0.953125
vt 0.859375 -0.996094
vt 0.832031 -0.992188
vt 0.734375 -0.878906
vt 0.734375 -0.945313
vt 0.621094 -0.878906
vt 0.621094 -0.945313
vt 0.734375 -0.992188
vt 0.621094 -0.992188
vt 0.734375 -0.945313
vt 0.621094 -0.945313
vt 0.734375 -0.953125
vt 0.621094 -0.953125
vt 0.734375 -0.875000
vt 0.621094 -0.875000
vt 0.734375 -0.996094
vt 0.621094 -0.996094
vt 0.734375 -0.953125
vt 0.621094 -0.953125
vt 0.859375 -0.996094
vt 0.820313 -0.953125
vt 0.859375 -0.996094
vt 0.000000 -0.996094
vt 0.000000 -0.996094
vt 0.824219 -0.953125
vt 0.859375 -0.996094
vt 0.832031 -0.992188
vt 0.011719 -0.937500
vt 0.000000 -0.937500
vt 0.011719 -0.429688
vt 0.000000 -0.429688
vt 0.000000 -0.937500
vt 0.011719 -0.937500
vt 0.000000 -0.429688
vt 0.011719 -0.429688
vt 0.011719 -0.937500
vt 0.031250 -0.937500
vt 0.011719 -0.429688
vt 0.035156 -0.429688
vt 0.031250 -0.937500
vt 0.031250 -0.937500
vt 0.035156 -0.429688
vt 0.035156 -0.429688
vt 0.031250 -0.937500
vt 0.011719 -0.937500
vt 0.035156 -0.429688
vt 0.011719 -0.429688
vt 0.054688 -0.808594
vt 0.023438 -0.808594
vt 0.058594 -0.652344
vt 0.039063 -0.652344
vt 0.023438 -0.808594
vt 0.054688 -0.808594
vt 0.039063 -0.652344
vt 0.058594 -0.652344
vt 0.054688 -0.808594
vt 0.105469 -0.808594
vt 0.058594 -0.652344
vt 0.093750 -0.652344
vt 0.105469 -0.808594
vt 0.105469 -0.808594
vt 0.093750 -0.652344
vt 0.093750 -0.652344
vt 0.105469 -0.808594
vt 0.054688 -0.808594
vt 0.093750 -0.652344
vt 0.058594 -0.652344
vt 0.070313 -0.996094
vt 0.031250 -0.996094
vt 0.070313 -0.960938
vt 0.031250 -0.960938
vt 0.984375 -0.050781
vt 0.984375 -0.011719
vt 0.984375 -0.050781
vt 0.984375 -0.011719
vt 0.996094 -0.000000
vt 0.996094 -0.000000
vt 0.996094 -0.000000
vt 0.996094 -0.003906
vt 0.828125 -0.011719
vt 0.984375 -0.011719
vt 0.828125 -0.050781
vt 0.984375 -0.050781
vt 0.996094 -0.000000
vt 0.996094 -0.003906
vt 0.996094 -0.000000
vt 0.996094 -0.000000
vt 0.070313 -0.960938
vt 0.132813 -0.960938
vt 0.070313 -0.996094
vt 0.132813 -0.996094
vt 0.457031 -0.347656
vt 0.460938 -0.242188
vt 0.496094 -0.347656
vt 0.500000 -0.242188
vt 0.527344 -0.105469
vt 0.679688 -0.109375
vt 0.527344 -0.105469
vt 0.679688 -0.109375
vt 0.527344 -0.207031
vt 0.527344 -0.105469
vt 0.527344 -0.207031
vt 0.527344 -0.105469
vt 0.503906 -0.199219
vt 0.589844 -0.199219
vt 0.503906 -0.230469
vt 0.589844 -0.230469
vt 0.679688 -0.109375
vt 0.527344 -0.105469
vt 0.628906 -0.207031
vt 0.527344 -0.207031
vt 0.679688 -0.109375
vt 0.628906 -0.207031
vt 0.527344 -0.105469
vt 0.527344 -0.207031
vt 0.457031 -0.347656
vt 0.460938 -0.242188
vt 0.496094 -0.347656
vt 0.500000 -0.242188
vt 0.527344 -0.105469
vt 0.679688 -0.109375
vt 0.527344 -0.105469
vt 0.679688 -0.109375
vt 0.527344 -0.207031
vt 0.527344 -0.105469
vt 0.527344 -0.207031
vt 0.527344 -0.105469
vt 0.503906 -0.199219
vt 0.589844 -0.199219
vt 0.503906 -0.230469
vt 0.589844 -0.230469
vt 0.679688 -0.109375
vt 0.527344 -0.105469
vt 0.628906 -0.207031
vt 0.527344 -0.207031
vt 0.679688 -0.109375
vt 0.628906 -0.207031
vt 0.527344 -0.105469
vt 0.527344 -0.207031
vt 0.070313 -0.996094
vt 0.031250 -0.996094
vt 0.070313 -0.960938
vt 0.031250 -0.960938
vt 0.984375 -0.050781
vt 0.984375 -0.011719
vt 0.984375 -0.050781
vt 0.984375 -0.011719
vt 0.996094 -0.000000
vt 0.996094 -0.000000
vt 0.996094 -0.000000
vt 0.996094 -0.003906
vt 0.828125 -0.011719
vt 0.984375 -0.011719
vt 0.828125 -0.050781
vt 0.984375 -0.050781
vt 0.996094 -0.000000
vt 0.996094 -0.003906
vt 0.996094 -0.000000
vt 0.996094 -0.000000
vt 0.070313 -0.960938
vt 0.132813 -0.960938
vt 0.070313 -0.996094
vt 0.132813 -0.996094
vt 0.707031 -0.179688
vt 0.687500 -0.179688
vt 0.707031 -0.179688
vt 0.687500 -0.179688
vt 0.167969 -0.703125
vt 0.109375 -0.703125
vt 0.167969 -0.640625
vt 0.109375 -0.640625
vt 0.687500 -0.179688
vt 0.687500 -0.179688
vt 0.687500 -0.332031
vt 0.687500 -0.332031
vt 0.707031 -0.179688
vt 0.687500 -0.179688
vt 0.707031 -0.332031
vt 0.687500 -0.332031
vt 0.707031 -0.179688
vt 0.707031 -0.179688
vt 0.707031 -0.332031
vt 0.707031 -0.332031
vt 0.687500 -0.179688
vt 0.707031 -0.179688
vt 0.687500 -0.332031
vt 0.707031 -0.332031
vt 0.101563 -0.246094
vt 0.000000 -0.242188
vt 0.000000 -0.105469
vt 0.000000 -0.105469
vt 0.101563 -0.105469
vt 0.101563 -0.246094
vt 0.222656 -0.007813
vt 0.105469 -0.054688
vt 0.105469 -0.011719
vt 0.726563 -0.011719
vt 0.722656 -0.335938
vt 0.878906 -0.105469
vt 0.617188 -0.394531
vt 0.648438 -0.714844
vt 0.722656 -0.335938
vt 0.824219 -0.953125
vt 0.878906 -0.105469
vt 0.722656 -0.335938
vt 0.648438 -0.714844
vt 0.824219 -0.953125
vt 0.722656 -0.335938
vt 0.722656 -0.335938
vt 0.726563 -0.011719
vt 0.878906 -0.105469
vt 0.648438 -0.714844
vt 0.617188 -0.394531
vt 0.722656 -0.335938
vt 0.722656 -0.335938
vt 0.878906 -0.105469
vt 0.820313 -0.953125
vt 0.648438 -0.714844
vt 0.722656 -0.335938
vt 0.820313 -0.953125
vt 0.988281 -0.847656
vt 0.921875 -0.984375
vt 0.859375 -0.996094
vt 0.000000 -0.996094
vt 0.000000 -0.996094
vt 0.859375 -0.996094
vt 0.859375 -0.996094
vt 0.859375 -0.996094
vt 0.859375 -0.996094
vt 0.820313 -0.953125
vt 0.824219 -0.953125
vt 0.824219 -0.953125
vt 0.734375 -0.878906
vt 0.734375 -0.992188
vt 0.734375 -0.945313
vt 0.000000 -0.996094
vt 0.824219 -0.953125
vt 0.820313 -0.953125
vt 0.859375 -0.996094
vt 0.832031 -0.992188
vt 0.820313 -0.953125
vt 0.824219 -0.953125
vt 0.878906 -0.105469
vt 0.000000 -0.242188
g studio.jagdpanther.mesh_0
usemtl texture_0
f 50/3/38 51/2/39 52/1/40
f 49/4/37 51/2/39 50/3/38
f 47/5/35 49/4/37 50/3/38
f 46/6/34 49/4/37 47/5/35
f 48/7/36 46/6/34 47/5/35
f 54/8/42 46/6/34 48/7/36
f 53/9/41 54/8/42 48/7/36
f 51/10/39 54/8/42 53/9/41
f 52/11/40 51/10/39 53/9/41
f 31/14/15 9/13/15 33/12/15
f 32/15/15 9/13/15 31/14/15
f 5/16/15 32/15/15 31/14/15
f 30/17/15 32/15/15 5/16/15
f 24/18/15 30/17/15 5/16/15
f 19/19/15 30/17/15 24/18/15
f 20/20/15 19/19/15 24/18/15
f 34/23/21 16/22/21 23/21/21
f 14/24/21 16/22/21 34/23/21
f 6/25/21 14/24/21 34/23/21
f 10/26/21 14/24/21 6/25/21
f 11/27/21 10/26/21 6/25/21
f 61/30/61 65/29/61 65/28/61
f 64/31/61 65/30/61 65/28/61
f 63/32/61 65/31/61 65/28/61
f 62/33/61 65/32/61 65/28/61
f 60/34/61 65/33/61 65/28/61
f 15/37/15 12/36/15 12/35/15
f 21/38/15 12/37/15 12/35/15
f 38/39/15 12/38/15 12/35/15
f 8/40/15 12/39/15 12/35/15
f 37/43/21 18/42/21 17/41/21
f 36/44/21 18/42/21 37/43/21
f 7/45/21 36/44/21 37/43/21
f 27/48/9 17/47/9 24/46/9
f 21/49/9 17/47/9 27/48/9
f 22/50/9 21/49/9 27/48/9
f 3/53/1 1/52/1 2/51/1
f 4/54/1 1/52/1 3/53/1
f 6/57/2 2/56/2 5/55/2
f 3/58/2 2/56/2 6/57/2
f 8/61/4 9/60/4 7/59/3
f 11/62/5 9/60/4 8/61/4
f 8/65/5 10/64/5 11/63/5
f 12/66/5 10/64/5 8/65/5
f 14/69/6 12/68/6 13/67/6
f 10/70/6 12/68/6 14/69/6
f 16/73/7 13/72/7 15/71/7
f 14/74/7 13/72/7 16/73/7
f 19/77/8 17/76/8 18/75/8
f 20/78/8 17/76/8 19/77/8
f 26/81/10 24/80/10 25/79/10
f 27/82/10 24/80/10 26/81/10
f 29/85/11 25/84/11 28/83/11
f 26/86/11 25/84/11 29/85/11
f 4/89/12 28/88/12 1/87/12
f 29/90/12 28/88/12 4/89/12
f 30/93/6 35/92/6 32/91/6
f 36/94/6 35/92/6 30/93/6
f 19/97/7 36/96/7 30/95/7
f 18/98/7 36/96/7 19/97/7
f 35/101/5 9/100/5 32/99/5
f 7/102/5 9/100/5 35/101/5
f 21/105/7 37/104/7 17/103/7
f 38/106/7 37/104/7 21/105/7
f 8/109/6 37/108/6 38/107/6
f 7/110/6 37/108/6 8/109/6
f 8/113/25 39/112/25 7/111/25
f 42/114/25 39/112/25 8/113/25
f 33/117/15 5/116/15 31/115/15
f 41/118/15 5/116/15 33/117/15
f 5/121/29 40/120/29 39/119/29
f 41/122/29 40/120/29 5/121/29
f 40/125/30 33/124/30 7/123/30
f 41/126/30 33/124/30 40/125/30
f 6/129/29 43/128/29 44/127/29
f 42/130/29 43/128/29 6/129/29
f 44/133/30 8/132/30 11/131/30
f 43/134/30 8/132/30 44/133/30
f 8/137/26 6/136/33 11/135/33
f 45/138/33 6/136/33 8/137/26
f 8/141/15 42/140/15 45/139/15
f 43/142/15 42/140/15 8/141/15
f 48/145/43 55/144/44 56/143/31
f 47/146/43 55/144/44 48/145/43
f 47/149/45 57/148/46 55/147/44
f 50/150/45 57/148/46 47/149/45
f 50/153/47 58/152/48 57/151/46
f 52/154/47 58/152/48 50/153/47
f 52/157/7 59/156/49 58/155/48
f 53/158/7 59/156/49 52/157/7
f 53/161/50 56/160/31 59/159/49
f 48/162/50 56/160/31 53/161/50
f 56/165/51 60/164/52 61/163/53
f 55/166/51 60/164/52 56/165/51
f 55/169/54 62/168/55 60/167/52
f 57/170/54 62/168/55 55/169/54
f 57/173/56 63/172/57 62/171/55
f 58/174/56 63/172/57 57/173/56
f 58/177/58 64/176/59 63/175/57
f 59/178/58 64/176/59 58/177/58
f 59/181/60 61/180/53 64/179/59
f 56/182/60 61/180/53 59/181/60
f 67/185/28 68/184/28 66/183/28
f 69/186/28 68/184/28 67/185/28
f 71/189/62 72/188/62 70/187/62
f 73/190/62 72/188/62 71/189/62
f 67/193/21 70/192/21 69/191/21
f 71/194/21 70/192/21 67/193/21
f 69/197/10 72/196/10 68/195/10
f 70/198/10 72/196/10 69/197/10
f 68/201/15 73/200/15 66/199/15
f 72/202/15 73/200/15 68/201/15
f 66/205/63 71/204/63 67/203/63
f 73/206/63 71/204/63 66/205/63
f 76/209/64 74/208/64 75/207/64
f 77/210/64 74/208/64 76/209/64
f 79/213/62 75/212/62 78/211/62
f 76/214/62 75/212/62 79/213/62
f 81/217/15 78/216/15 80/215/15
f 79/218/15 78/216/15 81/217/15
f 77/221/24 80/220/24 74/219/24
f 81/222/24 80/220/24 77/221/24
f 74/225/63 78/224/63 75/223/63
f 80/226/63 78/224/63 74/225/63
f 79/229/10 77/228/10 76/227/10
f 81/230/10 77/228/10 79/229/10
f 84/233/64 82/232/64 83/231/64
f 85/234/64 82/232/64 84/233/64
f 87/237/62 83/236/62 86/235/62
f 84/238/62 83/236/62 87/237/62
f 89/241/15 86/240/15 88/239/15
f 87/242/15 86/240/15 89/241/15
f 85/245/24 88/244/24 82/243/24
f 89/246/24 88/244/24 85/245/24
f 82/249/63 86/248/63 83/247/63
f 88/250/63 86/248/63 82/249/63
f 87/253/10 85/252/10 84/251/10
f 89/254/10 85/252/10 87/253/10
f 91/257/28 92/256/28 90/255/28
f 93/258/28 92/256/28 91/257/28
f 95/261/62 96/260/62 94/259/62
f 97/262/62 96/260/62 95/261/62
f 91/265/21 94/264/21 93/263/21
f 95/266/21 94/264/21 91/265/21
f 93/269/10 96/268/10 92/267/10
f 94/270/10 96/268/10 93/269/10
f 92/273/15 97/272/15 90/271/15
f 96/274/15 97/272/15 92/273/15
f 90/277/63 95/276/63 91/275/63
f 97/278/63 95/276/63 90/277/63
f 100/281/65 98/280/65 99/279/65
f 101/282/65 98/280/65 100/281/65
f 104/285/61 102/284/61 103/283/61
f 105/286/61 102/284/61 104/285/61
f 103/289/7 98/288/7 101/287/7
f 102/290/7 98/288/7 103/289/7
f 104/293/21 101/292/21 100/291/21
f 103/294/21 101/292/21 104/293/21
f 105/297/11 100/296/11 99/295/11
f 104/298/11 100/296/11 105/297/11
f 102/301/15 99/300/15 98/299/15
f 105/302/15 99/300/15 102/301/15
f 15/305/8 21/304/8 22/303/8
f 23/308/8 16/307/8 15/306/8
f 20/311/9 24/310/9 17/309/9
f 24/314/13 28/313/13 25/312/13
f 28/317/14 2/316/14 1/315/14
f 28/320/16 24/319/16 5/318/16
f 28/323/17 5/322/17 2/321/17
f 27/326/18 26/325/18 29/324/18
f 29/329/19 4/328/19 3/327/19
f 6/332/20 34/331/20 29/330/20
f 6/335/22 29/334/22 3/333/22
f 7/338/21 35/337/23 36/336/23
f 7/341/24 33/340/25 9/339/25
f 8/344/26 7/343/24 11/342/27
f 5/347/28 39/346/28 6/345/28
f 40/350/31 7/349/31 39/348/31
f 6/353/32 39/352/32 42/351/32
f 6/356/21 44/355/21 11/354/21
f 6/359/29 45/358/29 42/357/29
