# Wavefront OBJ file
# Exported by Misfit Model 3D 1.3.6
# Fri Feb 08 09:23:54 2008

mtllib bush_6.mtl

# 8 Vertices
v 0.339705 55.206285 -33.151154
v 0.339704 -0.945655 -33.151155
v -0.284761 55.206284 23.813075
v -0.284763 -0.945657 23.813074
v -33.177105 51.543449 0.0
v -33.177105 -0.730195 0.0
v 23.790546 51.543449 0.0
v 23.790546 -0.730195 0.0

# 12 Texture Coordinates
vt 0.0075 1.0
vt 0.0075 0.0
vt 0.9925 0.0
vt 0.9925 0.0
vt 0.9925 1.0
vt 0.0075 1.0
vt 0.0075 1.0
vt 0.0075 0.0
vt 0.9925 0.0
vt 0.9925 0.0
vt 0.9925 1.0
vt 0.0075 1.0

# 12 Vertex Normals
vn -0.99994 0.0 -0.010962
vn -0.99994 0.0 -0.010962
vn -0.99994 0.0 -0.010962
vn -0.99994 0.0 -0.010962
vn -0.99994 0.0 -0.010962
vn -0.99994 0.0 -0.010962
vn 0.0 0.0 1.0
vn 0.0 0.0 1.0
vn 0.0 0.0 1.0
vn 0.0 0.0 1.0
vn 0.0 0.0 1.0
vn 0.0 0.0 1.0

# tree_6, 4 grouped triangles

usemtl tree_6
o tree_6
g tree_6

f 1/1/1 2/2/2 4/3/3
f 4/4/4 3/5/5 1/6/6
f 5/7/7 6/8/8 8/9/9
f 8/10/10 7/11/11 5/12/12
