999
AutoCAD DXF file generated by LithUnwrap.
999
This DXF file contains 3D triangular mesh geometry.
0
SECTION
2
HEADER
0
ENDSEC
0
SECTION
2
ENTITIES
0
3DFACE
8
Default_Layer
10
-31.234375
20
-0.593749
30
18.125000
11
-27.875000
21
-3.374999
31
20.156250
12
25.156250
22
30.953125
32
-18.718752
13
25.156250
23
30.953125
33
-18.718752
0
3DFACE
8
Default_Layer
10
-31.234375
20
-0.593749
30
18.125000
11
25.156250
21
30.953125
31
-18.718752
12
21.562500
22
33.750000
32
-20.750002
13
21.562500
23
33.750000
33
-20.750002
0
3DFACE
8
Default_Layer
10
-27.875000
20
-3.593749
30
19.937500
11
-31.234375
21
-0.796874
31
17.671875
12
21.562500
22
33.531250
32
-21.203127
13
21.562500
23
33.531250
33
-21.203127
0
3DFACE
8
Default_Layer
10
-27.875000
20
-3.593749
30
19.937500
11
21.562500
21
33.531250
31
-21.203127
12
24.921875
22
30.531250
32
-19.171877
13
24.921875
23
30.531250
33
-19.171877
0
3DFACE
8
Default_Layer
10
21.562500
20
33.750000
30
-20.750002
11
25.156250
21
30.953125
31
-18.718752
12
24.921875
22
30.531250
32
-19.171877
13
24.921875
23
30.531250
33
-19.171877
0
3DFACE
8
Default_Layer
10
21.562500
20
33.750000
30
-20.750002
11
24.921875
21
30.531250
31
-19.171877
12
21.562500
22
33.531250
32
-21.203127
13
21.562500
23
33.531250
33
-21.203127
0
3DFACE
8
Default_Layer
10
-27.875000
20
-3.374999
30
20.156250
11
-31.234375
21
-0.593749
31
18.125000
12
-31.234375
22
-0.796874
32
17.671875
13
-31.234375
23
-0.796874
33
17.671875
0
3DFACE
8
Default_Layer
10
-27.875000
20
-3.374999
30
20.156250
11
-31.234375
21
-0.796874
31
17.671875
12
-27.875000
22
-3.593749
32
19.937500
13
-27.875000
23
-3.593749
33
19.937500
0
3DFACE
8
Default_Layer
10
-27.875000
20
-3.593749
30
19.937500
11
25.156250
21
30.953125
31
-18.718752
12
-27.875000
22
-3.374999
32
20.156250
13
-27.875000
23
-3.374999
33
20.156250
0
3DFACE
8
Default_Layer
10
24.921875
20
30.531250
30
-19.171877
11
25.156250
21
30.953125
31
-18.718752
12
-27.875000
22
-3.593749
32
19.937500
13
-27.875000
23
-3.593749
33
19.937500
0
3DFACE
8
Default_Layer
10
-31.234375
20
-0.593749
30
18.125000
11
21.562500
21
33.750000
31
-20.750002
12
21.562500
22
33.531250
32
-21.203127
13
21.562500
23
33.531250
33
-21.203127
0
3DFACE
8
Default_Layer
10
-31.234375
20
-0.593749
30
18.125000
11
21.562500
21
33.531250
31
-21.203127
12
-31.234375
22
-0.796874
32
17.671875
13
-31.234375
23
-0.796874
33
17.671875
0
3DFACE
8
Default_Layer
10
21.562500
20
33.531250
30
-21.203127
11
22.234375
21
37.187500
31
-17.125002
12
-30.562500
22
2.828126
32
21.750000
13
-30.562500
23
2.828126
33
21.750000
0
3DFACE
8
Default_Layer
10
21.562500
20
33.531250
30
-21.203127
11
-30.562500
21
2.828126
31
21.750000
12
-31.234375
22
-0.796874
32
17.671875
13
-31.234375
23
-0.796874
33
17.671875
0
3DFACE
8
Default_Layer
10
-31.234375
20
-0.796874
30
17.671875
11
-30.562500
21
2.828126
31
21.750000
12
-30.781250
22
2.828126
32
21.515625
13
-30.781250
23
2.828126
33
21.515625
0
3DFACE
8
Default_Layer
10
-31.234375
20
-0.796874
30
17.671875
11
-30.781250
21
2.828126
31
21.515625
12
-31.453125
22
-0.374999
32
17.453125
13
-31.453125
23
-0.374999
33
17.453125
0
3DFACE
8
Default_Layer
10
-31.453125
20
-0.374999
30
17.453125
11
-30.781250
21
2.828126
31
21.515625
12
21.796875
22
37.406250
32
-17.359377
13
21.796875
23
37.406250
33
-17.359377
0
3DFACE
8
Default_Layer
10
-31.453125
20
-0.374999
30
17.453125
11
21.796875
21
37.406250
31
-17.359377
12
21.343750
22
33.968750
32
-21.421877
13
21.343750
23
33.968750
33
-21.421877
0
3DFACE
8
Default_Layer
10
21.343750
20
33.968750
30
-21.421877
11
21.796875
21
37.406250
31
-17.359377
12
22.234375
22
37.187500
32
-17.125002
13
22.234375
23
37.187500
33
-17.125002
0
3DFACE
8
Default_Layer
10
21.343750
20
33.968750
30
-21.421877
11
22.234375
21
37.187500
31
-17.125002
12
21.562500
22
33.531250
32
-21.203127
13
21.562500
23
33.531250
33
-21.203127
0
3DFACE
8
Default_Layer
10
21.562500
20
33.531250
30
-21.203127
11
-31.234375
21
-0.796874
31
17.671875
12
-31.453125
22
-0.374999
32
17.453125
13
-31.453125
23
-0.374999
33
17.453125
0
3DFACE
8
Default_Layer
10
21.562500
20
33.531250
30
-21.203127
11
-31.453125
21
-0.374999
31
17.453125
12
21.343750
22
33.968750
32
-21.421877
13
21.343750
23
33.968750
33
-21.421877
0
3DFACE
8
Default_Layer
10
-30.781250
20
2.828126
30
21.515625
11
-30.562500
21
2.828126
31
21.750000
12
22.234375
22
37.187500
32
-17.125002
13
22.234375
23
37.187500
33
-17.125002
0
3DFACE
8
Default_Layer
10
-30.781250
20
2.828126
30
21.515625
11
22.234375
21
37.187500
31
-17.125002
12
21.796875
22
37.406250
32
-17.359377
13
21.796875
23
37.406250
33
-17.359377
0
3DFACE
8
Default_Layer
10
22.687500
20
-0.156249
30
16.765625
11
23.359375
21
3.046876
31
20.156250
12
-27.875000
22
46.625000
32
-11.031252
13
-27.875000
23
46.625000
33
-11.031252
0
3DFACE
8
Default_Layer
10
22.687500
20
-0.156249
30
16.765625
11
-27.875000
21
46.625000
31
-11.031252
12
-28.328125
22
43.406250
32
-14.421877
13
-28.328125
23
43.406250
33
-14.421877
0
3DFACE
8
Default_Layer
10
-28.093750
20
43.625000
30
-14.875002
11
-27.656250
21
46.843750
31
-11.031252
12
23.578125
22
3.265626
32
20.156250
13
23.578125
23
3.265626
33
20.156250
0
3DFACE
8
Default_Layer
10
-28.093750
20
43.625000
30
-14.875002
11
23.578125
21
3.265626
31
20.156250
12
22.906250
22
0.046876
32
16.546875
13
22.906250
23
0.046876
33
16.546875
0
3DFACE
8
Default_Layer
10
-28.328125
20
43.406250
30
-14.421877
11
-27.875000
21
46.625000
31
-11.031252
12
-27.656250
22
46.843750
32
-11.031252
13
-27.656250
23
46.843750
33
-11.031252
0
3DFACE
8
Default_Layer
10
-28.328125
20
43.406250
30
-14.421877
11
-27.656250
21
46.843750
31
-11.031252
12
-28.093750
22
43.625000
32
-14.875002
13
-28.093750
23
43.625000
33
-14.875002
0
3DFACE
8
Default_Layer
10
22.906250
20
0.046876
30
16.546875
11
23.578125
21
3.265626
31
20.156250
12
23.359375
22
3.046876
32
20.156250
13
23.359375
23
3.046876
33
20.156250
0
3DFACE
8
Default_Layer
10
22.906250
20
0.046876
30
16.546875
11
23.359375
21
3.046876
31
20.156250
12
22.687500
22
-0.156249
32
16.765625
13
22.687500
23
-0.156249
33
16.765625
0
3DFACE
8
Default_Layer
10
-27.875000
20
46.625000
30
-11.031252
11
23.359375
21
3.046876
31
20.156250
12
23.578125
22
3.265626
32
20.156250
13
23.578125
23
3.265626
33
20.156250
0
3DFACE
8
Default_Layer
10
-27.875000
20
46.625000
30
-11.031252
11
23.578125
21
3.265626
31
20.156250
12
-27.656250
22
46.843750
32
-11.031252
13
-27.656250
23
46.843750
33
-11.031252
0
3DFACE
8
Default_Layer
10
22.687500
20
-0.156249
30
16.765625
11
-28.328125
21
43.406250
31
-14.421877
12
-28.093750
22
43.625000
32
-14.875002
13
-28.093750
23
43.625000
33
-14.875002
0
3DFACE
8
Default_Layer
10
22.687500
20
-0.156249
30
16.765625
11
-28.093750
21
43.625000
31
-14.875002
12
22.906250
22
0.046876
32
16.546875
13
22.906250
23
0.046876
33
16.546875
0
3DFACE
8
Default_Layer
10
-28.093750
20
43.625000
30
-14.875002
11
-31.906250
21
41.265625
31
-12.156252
12
19.328125
22
-2.312499
32
19.265625
13
19.328125
23
-2.312499
33
19.265625
0
3DFACE
8
Default_Layer
10
-28.093750
20
43.625000
30
-14.875002
11
19.328125
21
-2.312499
31
19.265625
12
22.906250
22
0.046876
32
16.546875
13
22.906250
23
0.046876
33
16.546875
0
3DFACE
8
Default_Layer
10
22.906250
20
0.046876
30
16.546875
11
19.328125
21
-2.312499
31
19.265625
12
19.328125
22
-2.734374
32
19.031250
13
19.328125
23
-2.734374
33
19.031250
0
3DFACE
8
Default_Layer
10
22.906250
20
0.046876
30
16.546875
11
19.328125
21
-2.734374
31
19.031250
12
22.906250
22
-0.156249
32
16.093750
13
22.906250
23
-0.156249
33
16.093750
0
3DFACE
8
Default_Layer
10
22.906250
20
-0.156249
30
16.093750
11
19.328125
21
-2.734374
31
19.031250
12
-31.906250
22
40.828125
32
-12.390627
13
-31.906250
23
40.828125
33
-12.390627
0
3DFACE
8
Default_Layer
10
22.906250
20
-0.156249
30
16.093750
11
-31.906250
21
40.828125
31
-12.390627
12
-28.328125
22
43.203125
32
-15.093752
13
-28.328125
23
43.203125
33
-15.093752
0
3DFACE
8
Default_Layer
10
-31.906250
20
41.265625
30
-12.156252
11
-28.093750
21
43.625000
31
-14.875002
12
-28.328125
22
43.203125
32
-15.093752
13
-28.328125
23
43.203125
33
-15.093752
0
3DFACE
8
Default_Layer
10
-31.906250
20
41.265625
30
-12.156252
11
-28.328125
21
43.203125
31
-15.093752
12
-31.906250
22
40.828125
32
-12.390627
13
-31.906250
23
40.828125
33
-12.390627
0
3DFACE
8
Default_Layer
10
-28.093750
20
43.625000
30
-14.875002
11
22.906250
21
0.046876
31
16.546875
12
22.906250
22
-0.156249
32
16.093750
13
22.906250
23
-0.156249
33
16.093750
0
3DFACE
8
Default_Layer
10
-28.093750
20
43.625000
30
-14.875002
11
22.906250
21
-0.156249
31
16.093750
12
-28.328125
22
43.203125
32
-15.093752
13
-28.328125
23
43.203125
33
-15.093752
0
3DFACE
8
Default_Layer
10
19.328125
20
-2.734374
30
19.031250
11
19.328125
21
-2.312499
31
19.265625
12
-31.906250
22
41.265625
32
-12.156252
13
-31.906250
23
41.265625
33
-12.156252
0
3DFACE
8
Default_Layer
10
19.328125
20
-2.734374
30
19.031250
11
-31.906250
21
41.265625
31
-12.156252
12
-31.906250
22
40.828125
32
-12.390627
13
-31.906250
23
40.828125
33
-12.390627
0
3DFACE
8
Default_Layer
10
1.875000
20
48.343750
30
29.437498
11
5.453125
21
50.500000
31
26.718748
12
-2.812500
22
1.328124
32
-27.765625
13
-2.812500
23
1.328124
33
-27.765625
0
3DFACE
8
Default_Layer
10
1.875000
20
48.343750
30
29.437498
11
-2.812500
21
1.328124
31
-27.765625
12
-6.390625
22
-0.796876
32
-25.265625
13
-6.390625
23
-0.796876
33
-25.265625
0
3DFACE
8
Default_Layer
10
5.671875
20
50.500000
30
27.171873
11
2.328125
21
47.921875
31
29.656248
12
-5.937500
22
-1.234376
32
-25.046875
13
-5.937500
23
-1.234376
33
-25.046875
0
3DFACE
8
Default_Layer
10
5.671875
20
50.500000
30
27.171873
11
-5.937500
21
-1.234376
31
-25.046875
12
-2.578125
22
1.109374
32
-27.531250
13
-2.578125
23
1.109374
33
-27.531250
0
3DFACE
8
Default_Layer
10
-2.578125
20
1.109374
30
-27.531250
11
-5.937500
21
-1.234376
31
-25.046875
12
-6.390625
22
-0.796876
32
-25.265625
13
-6.390625
23
-0.796876
33
-25.265625
0
3DFACE
8
Default_Layer
10
-2.578125
20
1.109374
30
-27.531250
11
-6.390625
21
-0.796876
31
-25.265625
12
-2.812500
22
1.328124
32
-27.765625
13
-2.812500
23
1.328124
33
-27.765625
0
3DFACE
8
Default_Layer
10
2.328125
20
47.921875
30
29.656248
11
5.671875
21
50.500000
31
27.171873
12
5.453125
22
50.500000
32
26.718748
13
5.453125
23
50.500000
33
26.718748
0
3DFACE
8
Default_Layer
10
2.328125
20
47.921875
30
29.656248
11
5.453125
21
50.500000
31
26.718748
12
1.875000
22
48.343750
32
29.437498
13
1.875000
23
48.343750
33
29.437498
0
3DFACE
8
Default_Layer
10
-2.812500
20
1.328124
30
-27.765625
11
5.453125
21
50.500000
31
26.718748
12
5.671875
22
50.500000
32
27.171873
13
5.671875
23
50.500000
33
27.171873
0
3DFACE
8
Default_Layer
10
-2.812500
20
1.328124
30
-27.765625
11
5.671875
21
50.500000
31
27.171873
12
-2.578125
22
1.109374
32
-27.531250
13
-2.578125
23
1.109374
33
-27.531250
0
3DFACE
8
Default_Layer
10
-5.937500
20
-1.234376
30
-25.046875
11
2.328125
21
47.921875
31
29.656248
12
1.875000
22
48.343750
32
29.437498
13
1.875000
23
48.343750
33
29.437498
0
3DFACE
8
Default_Layer
10
-5.937500
20
-1.234376
30
-25.046875
11
1.875000
21
48.343750
31
29.437498
12
-6.390625
22
-0.796876
32
-25.265625
13
-6.390625
23
-0.796876
33
-25.265625
0
3DFACE
8
Default_Layer
10
-1.468750
20
51.140625
30
27.171873
11
2.328125
21
47.921875
31
29.656248
12
-5.937500
22
-1.234376
32
-25.046875
13
-5.937500
23
-1.234376
33
-25.046875
0
3DFACE
8
Default_Layer
10
-1.468750
20
51.140625
30
27.171873
11
-5.937500
21
-1.234376
31
-25.046875
12
-9.750000
22
1.749999
32
-27.312500
13
-9.750000
23
1.749999
33
-27.312500
0
3DFACE
8
Default_Layer
10
-1.687500
20
51.140625
30
27.624998
11
1.875000
21
47.921875
31
29.890623
12
2.328125
22
47.921875
32
29.656248
13
2.328125
23
47.921875
33
29.656248
0
3DFACE
8
Default_Layer
10
-1.687500
20
51.140625
30
27.624998
11
2.328125
21
47.921875
31
29.656248
12
-1.468750
22
51.140625
32
27.171873
13
-1.468750
23
51.140625
33
27.171873
0
3DFACE
8
Default_Layer
10
1.875000
20
47.921875
30
29.890623
11
-1.687500
21
51.140625
31
27.624998
12
-9.968750
22
1.749999
32
-27.078125
13
-9.968750
23
1.749999
33
-27.078125
0
3DFACE
8
Default_Layer
10
1.875000
20
47.921875
30
29.890623
11
-9.968750
21
1.749999
31
-27.078125
12
-6.390625
22
-1.234376
32
-24.812500
13
-6.390625
23
-1.234376
33
-24.812500
0
3DFACE
8
Default_Layer
10
-6.390625
20
-1.234376
30
-24.812500
11
-9.968750
21
1.749999
31
-27.078125
12
-9.750000
22
1.749999
32
-27.312500
13
-9.750000
23
1.749999
33
-27.312500
0
3DFACE
8
Default_Layer
10
-6.390625
20
-1.234376
30
-24.812500
11
-9.750000
21
1.749999
31
-27.312500
12
-5.937500
22
-1.234376
32
-25.046875
13
-5.937500
23
-1.234376
33
-25.046875
0
3DFACE
8
Default_Layer
10
-5.937500
20
-1.234376
30
-25.046875
11
2.328125
21
47.921875
31
29.656248
12
1.875000
22
47.921875
32
29.890623
13
1.875000
23
47.921875
33
29.890623
0
3DFACE
8
Default_Layer
10
-5.937500
20
-1.234376
30
-25.046875
11
1.875000
21
47.921875
31
29.890623
12
-6.390625
22
-1.234376
32
-24.812500
13
-6.390625
23
-1.234376
33
-24.812500
0
3DFACE
8
Default_Layer
10
-9.968750
20
1.749999
30
-27.078125
11
-1.687500
21
51.140625
31
27.624998
12
-1.468750
22
51.140625
32
27.171873
13
-1.468750
23
51.140625
33
27.171873
0
3DFACE
8
Default_Layer
10
-9.968750
20
1.749999
30
-27.078125
11
-1.468750
21
51.140625
31
27.171873
12
-9.750000
22
1.749999
32
-27.312500
13
-9.750000
23
1.749999
33
-27.312500
0
ENDSEC
0
EOF
